<?xml version="1.0" encoding="UTF-8"?>
<svg viewBox="0 0 168.68327 246.62846" xmlns="http://www.w3.org/2000/svg" xmlns:xlink="http://www.w3.org/1999/xlink">
 <defs>
  <linearGradient id="a">
   <stop stop-color="#b5c5cd" stop-opacity=".57895" offset="0"/>
   <stop stop-color="#b5c5cd" stop-opacity=".08978" offset="1"/>
  </linearGradient>
  <linearGradient id="c" x1="31.833" x2="83.033" y1="69.899" y2="107.74" gradientUnits="userSpaceOnUse" xlink:href="#a"/>
  <linearGradient id="b" x1="65.455" x2="23.159" y1="109.79" y2="122.83" gradientUnits="userSpaceOnUse" xlink:href="#a"/>
 </defs>
 <g transform="translate(-21.031 123.36)">
  <path d="m21.996 96.73c7.9867-3.379 15.641-4.3308 23.873-3.4046 8.3364 0.57528 16.321 2.9144 23.99 6.2319 7.2296 4.143 13.656 10.882 18.958 17.315l-0.54786-0.08806c-4.9837-6.4503-11.853-11.639-18.931-15.66-7.4712-3.8424-15.7-4.6011-23.854-5.6988-8.2755-1.8544-15.404-0.8648-23.471 1.357l-0.01723-0.05171z" opacity=".40984"/>
  <path d="m103.17-41.379c-3.2988 4.9733-6.0162 11.319-7.7309 14.742s-1.7639 4.041-2.6036 5.7287c2.0295 2.325 5.1792 5.2096 8.1033 6.2737 2.4576 0.40978 7.2461 0.28996 9.5298 1.1279 0.00676-0.00405-0.00674-0.0436 0-0.04768 1.4747-1.5577 1.8754-2.6973 3.1517-6.1588 1.2875-3.4919 5.4495-7.3517 8.393-12.533 2.9608-5.2116 3.8172-7.7245 7.1181-11.116 0.31205-3.9934-4.1817-7.1252-7.335-9.1715-2.9553-1.6024-8.6066-3.3668-11.394-3.5413-2.885 4.5971-3.8889 9.6557-7.2322 14.696z" fill="#fce94f"/>
  <g transform="matrix(1.5259 0 0 1.5259 -11.06 -64.827)">
   <path d="m21.664 105.88c5.2341-2.2144 10.25-2.8382 15.645-2.2312 5.4632 0.37701 10.696 1.91 15.722 4.0841 4.738 2.7152 8.9494 7.1315 12.424 11.347l-0.35904-0.05771c-3.8905 1.8503-6.1444 3.1954-12.989 3.3906-6.6446 1.1867-17.449-0.10144-22.834-4.5672-4.5492-2.2976-6.4733-8.1845-7.5976-11.932l-0.0113-0.03389z" fill="url(#b)"/>
   <path d="m73.872 13.373c-2.641 2.8292-4.8025 6.4728-6.6533 9.9395 0.64893 0.09566 0.85248 0.70454 1.1875 1.1875-0.99027 2.54-1.5065 2.1114-3.9688 7.125-2.4957 5.0817-2.7344 5.8065-5.7221 7.857-3.2947 2.2611-7.8253 3.1076-11.34 4.7992-6.7027 3.2257-8.2539 8.9429-10.844 17.188s-6.8332 21.331-9.625 28.625-3.8328 10.391-5.875 15.531c0.09087 4.5715 3.0381 9.0402 6.75 11.969s7.9784 5.479 14.209 5.6407 17.66-0.10249 24.314-3.8412c1.5798-7.2582 5.2975-13.729 7.6381-20.688 2.0646-6.1378 4.5184-11.973 6.8293-18.587 2.5707-7.3572 6.5967-15.526 6.3531-21.993s-4.7555-11.403-6.8125-14.438-0.50175-3.4872 0.36706-6.1562c0.85677-2.632 1.6922-4.8762 2.4753-7.444 1.3001 0.0183 2.0602 0.08489 3.3452 0.41278 1.1778-3.2812 2.7348-6.1036 3.25-9.5312 0.00431-0.01248 0.02693-0.01877 0.03125-0.03125-0.87455-0.8354-1.4624-1.5636-2.3994-2.4033l-1.0533 2.8678c-2.6862-0.51086-4.4427-1.6088-6.8776-2.7994-2.2074-0.10797-6.3376-6.1151-3.9232-2.3051l0.75342-2.2975c-0.66492-0.4766-1.6495-0.56917-2.4092-0.62697z" fill="url(#c)"/>
  </g>
  <path d="m103.17-41.379c-3.2988 4.9733-6.0162 11.319-7.7309 14.742s-1.7639 4.041-2.6036 5.7287c2.0295 2.325 5.1792 5.2096 8.1033 6.2737 2.4576 0.40978 7.2461 0.28996 9.5298 1.1279 0.00676-0.00405-0.00674-0.0436 0-0.04768 1.4747-1.5577 1.8754-2.6973 3.1517-6.1588 1.2875-3.4919 5.4495-7.3517 8.393-12.533 2.9608-5.2116 3.8172-7.7245 7.1181-11.116 0.31205-3.9934-4.1817-7.1252-7.335-9.1715-2.9553-1.6024-8.6066-3.3668-11.394-3.5413-2.885 4.5971-3.8889 9.6557-7.2322 14.696zm17.856-10.097c3.0351 1.015 6.5365 3.9055 6.7889 7.0608-1.5744 0.22371-8.0034-0.87456-10.604-2.5308-2.5572-1.6289-4.0105-4.5095-4.7058-7.0864 2.7549-0.3011 5.4854 1.5414 8.5205 2.5564zm-4.393 5.9264c2.8176 1.0965 5.9087 2.4088 8.8914 2.844-1.8064 4.2754-3.8376 5.5363-5.8467 9.9324-1.9928 4.3602-6.3104 9.3346-7.7651 12.387s-1.4264 3.9553-2.2697 5.5856c-2.2881-0.66312-5.7559-0.62647-8.0767-1.1831-2.8425-0.91555-4.6689-3.1776-6.9499-5.0932 0.40888-2.0091 0.87244-1.5417 2.316-4.645 1.4612-3.1414 5.6913-10.768 8.0688-15.106 2.3396-4.2696 3.5102-7.979 5.726-12.464 1.351 2.3525 3.5142 6.3347 5.9059 7.7426z"/>
  <path d="m42.564 39.019c-4.26 11.129-18.416 49.484-21.533 57.327 0.13866 6.9756 4.6358 13.794 10.3 18.263s12.174 8.3604 21.682 8.6071 26.948-0.15639 37.101-5.8613c2.4106-11.075 8.0834-20.949 11.655-31.567 3.1504-9.3656 8.593-24.045 12.119-34.137-42.781 8.8199-44.358-0.77798-71.324-12.632z" fill="#fcaf3e" opacity=".40984"/>
  <path d="m101.66-44.421c-4.0299 4.317-7.3281 9.8769-10.152 15.167 0.9902 0.14597 1.3008 1.0751 1.812 1.812-1.511 3.8758-2.2988 3.2218-6.0559 10.872-3.8081 7.7541-4.1723 8.8601-8.7314 11.989-5.0274 3.4502-11.941 4.7419-17.304 7.3232-10.228 4.9221-12.595 13.646-16.546 26.226s-10.427 32.549-14.687 43.679-5.8484 15.856-8.9646 23.699c0.13866 6.9756 4.6358 13.794 10.3 18.263s12.174 8.3604 21.682 8.6071 26.948-0.15639 37.101-5.8613c2.4106-11.075 8.0834-20.949 11.655-31.567 3.1504-9.3656 6.8946-18.27 10.421-28.362 3.9226-11.226 10.066-23.691 9.6942-33.56s-7.2564-17.4-10.395-22.03-0.76563-5.3211 0.5601-9.3938c1.3073-4.0162 2.5821-7.4405 3.777-11.359 1.9838 0.02792 3.1436 0.12953 5.1044 0.62986 1.7972-5.0068 4.1731-9.3135 4.9592-14.544 0.00659-0.01904 0.0411-0.02864 0.04769-0.04768-1.3345-1.2747-2.2314-2.386-3.6612-3.6672l-0.76596 0.77047c1.4687 1.1043 1.4106 1.6668 2.7732 2.8967 0.30657 0.22763 0.74577 0.65035 0.70027 0.95369-5.0708-0.1674-10.068-2.0383-14.809-4.5165-4.8922-2.5574-4.8746-3.7066-7.6441-6.728 1.1162-0.10766 1.8807-0.09323 2.8596 0.32627l-0.0522-0.6214c-1.0146-0.72724-2.517-0.8685-3.6762-0.9567zm-0.47835 2.6452c2.7848 2.7919 3.2232 4.5237 8.2223 6.9754 5.0771 2.49 9.7011 2.9059 14.565 3.6908-1.3521 4.2467-1.1837 7.0956-4.2871 11.188-5.8783-0.3295-11.056-1.1732-16.536-3.3319-3.5974-2.2212-7.191-3.4596-9.6172-6.9604 2.4612-4.7995 4.319-7.3574 7.6531-11.562zm-6.9214 14.841c3.2132 0.75565 5.4881 3.1122 8.4534 4.6426 3.7069 1.5162 7.5636 2.7967 11.587 2.9564-1.1696 3.9924-2.6361 8.0878-3.8624 11.683-1.2062 3.536-2.7308 6.4182-0.55228 11.134 2.2114 4.7869 10.773 11.06 10.207 20.662s-5.2962 20.635-9.2849 31.647c-3.3724 9.3106-7.4814 20.418-10.963 29.675-4.0112 10.665-8.5345 20.632-11.961 31.529-10.86 3.2729-25.158 5.9814-34.619 4.9115s-15.154-4.2783-21.129-8.6691-7.6749-9.5588-9.0473-16.491c3.0096-7.8608 4.5355-12.526 9.0432-23.559s9.8908-30.828 14.083-43.481 5.6693-20.381 15.81-24.952c10.422-4.6971 10.864-4.5825 16.635-7.7003s8.1314-7.8044 10.102-12.362 3.6553-8.0736 5.4969-11.626z"/>
  <path d="m66.045 36.121c-11.901-0.1142-21.323 1.7048-23.461 2.9087 26.966 11.854 28.507 21.456 71.288 12.636-13.174-12.044-32.527-15.398-47.827-15.545zm-23.461 2.9087c-5.8073 12.069-9.6041 22.512-11.778 31.472 4.6502-12.464 9.5482-25.646 11.778-31.472z" fill="#fcaf3e" opacity=".57923"/>
  <path d="m21.996 96.73c7.9867-3.379 15.641-4.3308 23.873-3.4046 8.3364 0.57528 16.321 2.9144 23.99 6.2319 7.2296 4.143 13.656 10.882 18.958 17.315l-0.54786-0.08806c-5.9365 2.8234-9.3757 4.8759-19.82 5.1737-10.139 1.8108-26.625-0.15479-34.843-6.9691-6.9416-3.5058-9.8776-12.489-11.593-18.207l-0.01723-0.05171z" fill="#fcaf3e" opacity=".40984"/>
  <g transform="matrix(.20371 .1836 -.1836 .20371 145.65 -151.39)" fill-rule="evenodd">
   <path d="m58.955 347.23c-67.992-104.38 14.106-113.71-6.8357-256.61 51.357 67.417 65.696 150.11 87.256 174.57 14.88 19.209 22.219 42.395 20.218 66.217-0.20173 18.854 23.625 41.698 17.11 59.3-34.644-27.749-94.232-9.6623-117.75-43.478z" fill="#e73900"/>
   <path d="m161.78 377.71c0.39304-19.99-23.796-28.662-33.526-44.274-16.115-11.925-21.219-30.487-21.575-48.766-1.3098-29.234 24.748-203.54 62.711-250.36-14.548 71.886 21.569 167.64 43.883 199.32 15.1 24.614 20.776 52.953 15.337 80.838-2.6722 22.247-21.101 35.615-31.071 55.569-9.9725 12.017-23.544 13.155-35.76 7.6689z" fill="#e73900"/>
   <path d="m175.56 387.49c5.7866-17.367-5.6649-44.895-9.2709-61.002-9.7833-14.504-8.838-32.016-4.1256-48.078 6.9367-25.875 8.0819-147.98 120.03-205.32-86.818 85.183-29.17 154.41-19.772 187.75 5.4905 25.333 2.6838 51.737-9.6975 74.52-17.094 31.454-62.733 48.789-77.159 52.137z" fill="#e73900"/>
   <path d="m157.12 377.31c0.29729-16.32-17.999-23.4-25.359-36.145-12.189-9.7354-16.05-24.889-16.319-39.812-0.99071-23.866 23.326-150.05 42.827-204.39-13.307 123.18 20.921 136.86 37.799 162.72 11.421 20.094 15.715 43.23 11.601 65.995-2.0212 18.162-10.734 34.717-18.275 51.007-7.543 9.8103-23.035 5.0987-32.274 0.61963z" fill="#e78c00"/>
   <path d="m86.963 353.93c-69.841-71.705 6.2567-76.698-13.112-175.17 23.003 46.417 42.078 81.286 50.454 114.24 12.395 11.638 55.225 82.683 52.658 95.564-26.992-15.367-69.89-13.986-90-34.633z" fill="#e78c00"/>
   <path d="m100.91 349.61c-41.778-39.659-10.578-62.945-10.952-112.48 11.549 43.353 48.08 54.035 47.611 80.078 6.0349 7.7903 37.634 63.345 34.992 70.483-14.05-11.254-55.822-23.055-71.651-38.081z" fill="#e7e100"/>
   <path d="m168.06 344.26c-7.3404-10.882-6.6311-24.022-3.0954-36.073 5.2046-19.414 28.071-127.32 60.738-150.79-23.591 44.36 7.4299 112.6 14.481 137.61 4.1195 19.007 5.2716 41.49-7.276 55.912-18.955 21.787-42.882 34.475-56.29 37.517-8.5236 5.9816-5.8523-32.084-8.5579-44.169z" fill="#e78c00"/>
   <path d="m156.26 378.51c0.58986-9.9844-10.435-14.776-14.623-22.764-7.2194-6.2651-9.2046-15.639-8.9964-24.783-0.01014-14.637-0.50958-105.88 18.026-128.56-8.2039 35.656 22.691 88.808 32.379 105.06 6.4904 12.588 8.541 26.86 5.4534 40.695-1.6914 11.069-7.4395 20.987-12.463 30.772-4.8634 5.8179-14.231 2.546-19.776-0.42721z" fill="#e7e100"/>
   <path d="m165.08 379.78c4.7458-6.9504-1.1375-15.179-0.70358-22.755-2.4993-7.6452 0.12406-15.27 4.2304-21.778 6.3258-10.568 17.442-89.101 40.633-97.45-21.349 22.183 15.724 81.495 15.681 97.418-0.76263 11.893-15.23 27.967-23.445 36.615-6.0102 7.2569-17.905 14.231-25.764 19.119-6.0272-3.6639-7.9168-6.6232-10.632-11.168z" fill="#e7e100"/>
   <path d="m157.08 371.83c-14.756-23.241-9.2815-49.17-3.0063-77.451 2.8586 19.189 14.767 42.476 21.498 50.112 4.6459 5.9972 6.9372 13.236 6.3126 20.674-0.06299 5.8864-3.0512 13.019-5.0854 18.515-10.816-8.6636-12.377-1.2918-19.719-11.85z" fill="#ffff9e"/>
   <path d="m173.67 360.31c11.431-25.045 0.11491-44.761 26.314-64.409-7.8236 18.215 10.07 46.976 8.1227 56.948-3.2743 16.772-25.885 29.254-31.601 30.547 1.3617-13.791-7.6802-11.174-2.836-23.087z" fill="#ffff9e"/>
   <path d="m92.05 278.34c61.453 77.716 60.095 38.481 84.465 105.04-116.16-51.717-64.026-47.049-84.465-105.04z" fill="#ffff9e"/>
  </g>
 </g>
</svg>
