<?xml version="1.0" encoding="UTF-8"?>
<svg viewBox="0 0 180.9738 156.74649" xmlns="http://www.w3.org/2000/svg">
 <g transform="translate(-338.81 -289.77)">
  <path transform="matrix(.30578 .10622 -.10622 .30578 427.98 225.39)" d="m360 598.08-264.07 91.674-211.43-182.86 52.645-274.53 264.07-91.674 211.43 182.86-52.645 274.53z" fill="#37498b"/>
  <path d="m436.95 357.43 22.309-11.109-6.2998-6.3342 12.14-7.7434-7.4999-7.1472 11.617-7.4093-4.3086-4.501 10.819-8.2359-16.698 8.421 3.4909 3.5916-12.645 8.0699 5.8152 5.9224-11.75 7.4176 7.2767 7.1825-14.266 11.875z" fill="#fff" fill-rule="evenodd"/>
  <path d="m407.62 374.21-0.92171-4.3357 16.57-16.155-0.29577 13.084-15.353 7.4066z" fill="#fff" fill-rule="evenodd" stroke="#000"/>
  <path d="m417.81 383.09 5.9362 0.95765 14.553-15.897-11.489 1.1492-9.0001 13.79z" fill="#fff" fill-rule="evenodd" stroke="#000"/>
  <path d="m422.54 366.91c-11.681 2.873-59.299 35.097-46.341 47.883 12.861 12.69 44.635-32.338 50.603-45.298l-4.2622-2.5846z" fill="#fff" fill-rule="evenodd" stroke="#000"/>
  <path d="m383.58 393.43c9.5745 3.6391 14.614 13.975 14.614 13.975" fill="none" stroke="#000"/>
  <g transform="matrix(.75827 0 0 .75843 339.39 201.97)" fill-rule="evenodd">
   <path d="m68.713 243.46-7.125 6.5938c12.627 4.7982 18.938 17.688 18.938 17.688l6.25-7.4062 0.3125-0.375c-4.5755-7.2775-10.497-12.554-18.062-16.656l-0.3125 0.15625z" stroke="#000" stroke-width="1.3187"/>
   <path d="m67.973 252.47c4.8648 3.0264 8.7227 8.148 8.7227 8.148l4.0269-4.6596c-2.5785-3.0582-5.2767-5.3711-8.3197-7.673l-4.4299 4.1845z" fill="#fff"/>
   <path d="m78.869 263.56c1.3592 1.9466 1.5114 2.3335 2.1347 3.4855l4.1196-4.7102c-0.83668-1.6255-1.1729-2.1033-1.833-3.1108l-4.4213 4.3355z" fill="#fff"/>
   <path d="m69.574 246.68-2.8284-1.4848-4.7024 4.2581 2.9767 1.3275 4.5541-4.1008z" fill="#fff"/>
  </g>
  <path d="m415.18 378.28 0.33786 0.32945 6.6239-5.5395-2.0155-1.564-4.9462 6.774z" fill-rule="evenodd" stroke="#000"/>
  <path d="m420.73 370.76 10.426-12.257 2.1216 2.1221-10.415 11.794-2.1326-1.6591z" fill="#fff" fill-rule="evenodd" stroke="#000"/>
 </g>
</svg>
