<?xml version="1.0" encoding="UTF-8"?>
<svg viewBox="0 0 208.53224 690.01843" xmlns="http://www.w3.org/2000/svg">
 <g transform="translate(-201.5 -131.34)">
  <path d="m258 646.36-55 89-1 81 53 1 39-42-36-129z" fill="#231f20" fill-rule="evenodd" stroke="#000"/>
  <path d="m349 644.36 55 89 1 81-53 1-39-42 36-129z" fill="#231f20" fill-rule="evenodd" stroke="#000"/>
  <path d="m301.97 131.34s-99.666 86.106-100 216.03c-0.34278 133.15 88 435 88 435h32.062c2e-5 1e-5 88.343-301.85 88-435-0.33446-129.93-100-216.03-100-216.03h-8.0625z" fill="#babdb6"/>
  <path d="m303.47 134.34s-94.166 87.106-94.5 217.03c-0.34278 133.15 88 435 88 435-30.464-147.14-56.302-308.93-60-459.06 0.22054-85.669 35.846-153.79 66.688-192.47l-0.1875-0.5z" fill="#888a85"/>
  <path d="m341.41 173.22c28.606 50.817 43.8 109.89 39.007 168.37-4.4819 111.11-19.31 221.47-38.913 330.85 23.063-89.508 44.085-179.88 55.812-271.56 5.3568-43.924 6.5042-89.717-7.261-132.21-10.377-34.498-27.421-66.89-48.833-95.762l0.1875 0.3125z" fill="#eeeeec"/>
  <path d="m204.07 305.38c-0.05037 0.6345-0.09021 1.2841-0.09021 1.9245 0 27.09 45.48 49.075 101.52 49.075s101.52-21.986 101.52-49.075c0-0.64043-0.03984-1.29-0.09021-1.9245-2.0958 26.198-46.725 47.151-101.43 47.151s-99.333-20.953-101.43-47.151z" fill="#888a85"/>
  <path d="m296 648.36h26v173h-16z" fill="#231f20"/>
  <path d="m316 654.36s12 36 23 28-24 98-24 98l1-126z" fill="#888a85" fill-rule="evenodd"/>
  <path transform="matrix(.96031 0 0 .96031 151.55 337.74)" d="m236.17-10.066a8.1317 8.1317 0 1 1 -16.263 0 8.1317 8.1317 0 1 1 16.263 0z" fill="#888a85"/>
  <path transform="matrix(.68362 0 0 .68362 213.54 333.5)" d="m236.17-10.066a8.1317 8.1317 0 1 1 -16.263 0 8.1317 8.1317 0 1 1 16.263 0z" fill="#babdb6"/>
  <path transform="matrix(.96031 0 0 .96031 177.69 317.74)" d="m236.17-10.066a8.1317 8.1317 0 1 1 -16.263 0 8.1317 8.1317 0 1 1 16.263 0z" fill="#babdb6"/>
  <path transform="matrix(.68362 0 0 .68362 239.68 313.5)" d="m236.17-10.066a8.1317 8.1317 0 1 1 -16.263 0 8.1317 8.1317 0 1 1 16.263 0z" fill="#eeeeec"/>
  <path transform="matrix(.96031 0 0 .96031 125.4 345.74)" d="m236.17-10.066a8.1317 8.1317 0 1 1 -16.263 0 8.1317 8.1317 0 1 1 16.263 0z" fill="#888a85"/>
  <path transform="matrix(.68362 0 0 .68362 187.4 341.5)" d="m236.17-10.066a8.1317 8.1317 0 1 1 -16.263 0 8.1317 8.1317 0 1 1 16.263 0z" fill="#babdb6"/>
  <path transform="matrix(.96031 0 0 .96031 99.26 349.74)" d="m236.17-10.066a8.1317 8.1317 0 1 1 -16.263 0 8.1317 8.1317 0 1 1 16.263 0z" fill="#888a85"/>
  <path transform="matrix(.68362 0 0 .68362 161.25 345.5)" d="m236.17-10.066a8.1317 8.1317 0 1 1 -16.263 0 8.1317 8.1317 0 1 1 16.263 0z" fill="#babdb6"/>
  <path transform="matrix(.96031 0 0 .96031 73.117 349.74)" d="m236.17-10.066a8.1317 8.1317 0 1 1 -16.263 0 8.1317 8.1317 0 1 1 16.263 0z" fill="#888a85"/>
  <path transform="matrix(.68362 0 0 .68362 135.11 345.5)" d="m236.17-10.066a8.1317 8.1317 0 1 1 -16.263 0 8.1317 8.1317 0 1 1 16.263 0z" fill="#babdb6"/>
  <path transform="matrix(.96031 0 0 .96031 46.974 345.74)" d="m236.17-10.066a8.1317 8.1317 0 1 1 -16.263 0 8.1317 8.1317 0 1 1 16.263 0z" fill="#888a85"/>
  <path transform="matrix(.68362 0 0 .68362 108.97 341.5)" d="m236.17-10.066a8.1317 8.1317 0 1 1 -16.263 0 8.1317 8.1317 0 1 1 16.263 0z" fill="#babdb6"/>
  <path transform="matrix(.96031 0 0 .96031 20.831 337.74)" d="m236.17-10.066a8.1317 8.1317 0 1 1 -16.263 0 8.1317 8.1317 0 1 1 16.263 0z" fill="#888a85"/>
  <path transform="matrix(.68362 0 0 .68362 82.826 333.5)" d="m236.17-10.066a8.1317 8.1317 0 1 1 -16.263 0 8.1317 8.1317 0 1 1 16.263 0z" fill="#babdb6"/>
  <path transform="matrix(.96031 0 0 .96031 -5.3115 319.74)" d="m236.17-10.066a8.1317 8.1317 0 1 1 -16.263 0 8.1317 8.1317 0 1 1 16.263 0z" fill="#888a85"/>
  <path transform="matrix(.68362 0 0 .68362 56.683 315.5)" d="m236.17-10.066a8.1317 8.1317 0 1 1 -16.263 0 8.1317 8.1317 0 1 1 16.263 0z" fill="#babdb6"/>
 </g>
</svg>
