<?xml version="1.0" encoding="UTF-8"?>
<svg enable-background="new 0 0 272.105 218.642" viewBox="0 0 272.105 218.642" xmlns="http://www.w3.org/2000/svg">
 <path d="m109.707,148.134c-.193-7.886-.387-15.772-.58-23.659-3.205.743-3.506,3.255-5.204,5.659-.288.407-6.563-1.053-8.086-.728-.932.199-1.827.93-2.515,1.579-2.159,2.036-1.592-.127-3.992.153-.946.111-1.513,1.709-2.558,1.61l-5.747-.549c.421,3.553-4.199,4.667-6.425,6.432-3.748,2.973-6.852,1.577-11.268.489-2.836-.699-6.667.212-5.537-4.123 .264-1.012 1.116-3.557.73-4.438-.813-1.855-3.19-1.388-3.738-3.796-.328-1.442 1.715-2.388 1.425-3.788-.405-1.959-.971-3.327-1.874-5.133-1.858-3.716-2.272-6.582-6.514-7.726-1.934-.522-9.047-3.407-10.127-2.087-.786.963-1.873,3.671-2.925,3.945-2.12.552-4.257.767-6.431,1.049-4.34.561-3.903,1.794-6.392,5.11-1.378,1.837-2.757,3.675-4.135,5.512-1.44,1.92-2.553-1.388-4.307-.643-6.134,2.607-14.921,7.648-9.691,14.859 2.054,2.832 4.055,6.473.57,7.966-3.65,1.564-3.914,6.287-3.707,9.548 .232,3.64.366,5.438 2.95,7.966 3.103,3.036 4.971,4.522 9.07,5.928 2.082.714 2.748.502 3.209,2.624 .195.897 1.151,3.087.282,3.46-3.838,1.645-2.279,4.264-.279,7.122 3.565,5.094 11.877,4.969 17.281,4.399 3.007-.316 5.647-.771 8.479-1.804 .931-.34 2.585-1.433 3.468-.81 .907.639 1.66,3.061 2.198,3.128 4.992.625 13.626,1.79 18.19-.886 3.56-2.088 4.046.931 7.634.768 3.741-.17 7.509-.215 11.242-.511 7.361-.583 14.716-1.7 22.052-2.548 4.523-.521 2.501-10.854 2.615-14.7 .216-7.123.446-14.25.637-21.377" fill="#73736e"/>
 <path d="m271.368,175.656c-.034-31.344-.068-62.688-.103-94.031-.022-20.272-.045-40.545-.066-60.818-.007-5.771-.013-11.543-.02-17.315-.003-2.318.837-3.492-1.563-3.492h-109.886-12.661c-.172,0-.08,6.416-.08,6.858v49.481 123.759l62.238-2.173 42.788-1.494c6.038-.208 13.795.405 19.353-.775" fill="#a6a69b"/>
 <path d="m110.219,163.781c-.936-29.943-3.025-60.018-1.683-89.96 .674-15.03-1.732-29.512.62-44.559 .371-2.369 3.738-21.295 4.936-21.351 8.399-.392 14.497-1.815 22.565-4.295l11.126-3.42c1.513,31.186.532,61.873-1.281,93.029-1.669,28.645.742,57.899 1.281,86.587-12.481-5.34-24.869-11.262-37.564-16.031" fill="#7f7f79"/>
 <path d="m270.31 22.018c1.242-3.792-6.786-2.125-8.929-2.125h-110.96c-3.267 0-3.267 2.221 0 2.221h97.862c7.099 0 15.122 0.824 22.022-0.096" fill="#c4c4b4"/>
 <path d="m271.66 44.035c1.242-3.791-6.786-2.125-8.929-2.125h-110.96c-3.266 0-3.266 2.221 0 2.221h97.862c7.097 1e-3 15.126 0.829 22.023-0.096" fill="#c4c4b4"/>
 <path d="m271.66 66.052c1.241-3.79-6.787-2.124-8.929-2.124h-110.96c-3.266 0-3.266 2.221 0 2.221h97.862c7.097 0 15.126 0.829 22.023-0.097" fill="#c4c4b4"/>
 <path d="m270.6 89.228c1.242-3.791-6.786-2.125-8.929-2.125h-110.96c-3.243 0-3.243 2.125 0 2.125h219.88" fill="#c4c4b4"/>
 <path d="m270.02 109.02c1.242-3.79-6.786-2.124-8.928-2.124h-110.96c-3.267 0-3.267 2.222 0 2.222h97.862c7.094 0 15.129 0.833 22.022-0.098" fill="#c4c4b4"/>
 <path d="m270.02 128.92c1.304-3.929-6.713-2.223-8.928-2.223h-110.96c-3.268 0-3.268 2.223 0 2.223h219.88" fill="#c4c4b4"/>
 <path d="m269.44 148.13c0.224-0.596 0.067-1.48 0.098-2.124h-120.77c-0.957 0-3.352 0.321-1.582 2.222 0.31 0.331 2.81 0 3.231 0h98.44c6.444-1e-3 14.589 0.914 20.583-0.098" fill="#c4c4b4"/>
 <path d="m172.77 159.14c0.032-51.567 0.064-103.13 0.097-154.7-4.519 0-3.38 0.736-3.38 4.894v145.01c0 3.863-1.053 5.418 3.283 4.797" fill="#97978e"/>
 <path d="m199.81 159.43v-154.57c0-2-3.283-0.64-3.283-0.985v152.66c0 3.129-0.392 3.348 3.283 2.897" fill="#97978e"/>
 <path d="m226.76 161.65c0.031-52.501 0.063-105 0.095-157.5-4.495 0-3.379 0.684-3.379 4.814v147.87c0 4.202-1.004 4.815 3.284 4.815" fill="#97978e"/>
 <path d="m253.79 160.59v-155.76c0-1.518-1.857-2.666-3.284-1.259-0.955 0.941 0 7.829 0 9.087v144.52c0 3.411-0.657 3.551 3.284 3.414" fill="#97978e"/>
 <path d="m174.99 156.44v-151.74c0-0.561-2.124-0.791-2.124 0.321v136.65c0 2.37-1.864 16.076 2.124 14.766" fill="#a6a69b"/>
 <path d="m201.94 157.02c0.032-50.667 0.064-101.33 0.097-152-3.412-1.134-2.221 2.894-2.221 4.974v142.05c0 2.09-1.074 6.218 2.124 4.975" fill="#a6a69b"/>
 <path d="m228.98 158.66v-151.74c0-0.561-2.125-0.792-2.125 0.321v136.65c0 2.371-1.864 16.076 2.125 14.767" fill="#a6a69b"/>
 <path d="m255.43 158.08v-151.74c0-0.552-2.221-0.817-2.221 0.321v136.65c0 2.433-1.933 16.149 2.221 14.768" fill="#a6a69b"/>
 <path d="m177.8 157.02v-152.32c0-0.485-2.802-0.815-2.802 0.146v138.19c1e-3 2.966-2.351 15.584 2.802 13.976" fill="#b6b6a8"/>
 <path d="m205.12 158.56c0.032-51.373 0.064-102.75 0.097-154.12-4.011-1.249-2.8 2.332-2.8 4.932v144.36c-1e-3 2.647-1.077 6.322 2.703 4.834" fill="#b6b6a8"/>
 <path d="m231.78 159.92v-154.95c0-1.773-2.703-0.888-2.703-0.939v152.01c0 2.272-0.94 5.165 2.703 3.884" fill="#b6b6a8"/>
 <path d="m258.14 158.76c0.032-51.728 0.064-103.46 0.097-155.18-4.006-1.245-2.802 2.306-2.802 4.906v145.37c0 2.636-1.088 6.222 2.705 4.907" fill="#b6b6a8"/>
 <path d="m270.79 70.301c0.222-0.596 0.067-1.48 0.096-2.125h-120.69c-1.692 0-1.412 2.221-1.25 2.221h202.11c6.191 0 13.99 0.847 19.74-0.096" fill="#97978e"/>
 <path d="m270.69 48.67c1.303-3.923-6.688-2.221-8.9-2.221h-110.61c-3.258 0-3.258 2.221 0 2.221h219.51" fill="#97978e"/>
 <path d="m270.31 26.653c1.302-3.923-6.688-2.221-8.9-2.221h-110.61c-3.258 0-3.258 2.221 0 2.221h219.51" fill="#97978e"/>
 <path d="m270.69 93.864c1.303-3.924-6.688-2.222-8.9-2.222h-110.61c-3.258 0-3.258 2.222 0 2.222h219.51" fill="#97978e"/>
 <path d="m269.53 113.66c0.232-0.62 0.067-1.548 0.096-2.22h-120.69c-1.692 0-1.412 2.22-1.25 2.22h221.85" fill="#97978e"/>
 <path d="m269.92 133.46c0.224-0.596 0.067-1.479 0.097-2.124h-120.69c-1.692 0-1.411 2.222-1.25 2.222h202.11c6.184 0 14.002 0.856 19.739-0.098" fill="#97978e"/>
 <path d="m269.53 152.58c0.222-0.597 0.067-1.48 0.096-2.125h-120.69c-1.638 0-1.445 2.125-1.25 2.125h221.85" fill="#97978e"/>
 <path d="m269.53 150.36c0.223-0.596 0.067-1.481 0.096-2.124h-120.86c-0.958 0-3.354 0.32-1.584 2.221 0.31 0.331 2.813 0 3.234 0h98.517c6.452 0 14.594 0.913 20.6-0.097" fill="#a6a69b"/>
 <path d="m270.5 131.43c1.304-3.916-6.604-2.222-8.811-2.222h-110.77c-3.026 0-4.199 2.222-0.825 2.222h220.41" fill="#a6a69b"/>
 <path d="m270.21 111.05c1.304-3.918-6.604-2.223-8.812-2.223h-110.77c-3.028 0-4.199 2.223-0.826 2.223h220.41" fill="#a6a69b"/>
 <path d="m270.5 91.449c1.243-3.779-6.677-2.124-8.811-2.124h-110.77c-3.026 0-4.198 2.221-0.825 2.221h97.577c7.348 0 15.686 0.883 22.832-0.097" fill="#a6a69b"/>
 <path d="m271.27 68.66c0.233-0.621 0.067-1.55 0.096-2.221h-120.86c-0.957 0-3.353 0.321-1.583 2.221 0.31 0.332 2.813 0 3.234 0h219.12" fill="#a6a69b"/>
 <path d="m271.561,46.256c.224-.595.067-1.481.098-2.124h-102.8-18.065c-.957,0-3.353.32-1.583,2.221 .309.332 2.813,0 3.233,0h52.515 46.002c6.454,0 14.597.91 20.6-.097" fill="#a6a69b"/>
 <path d="m270.79 24.239c1.303-3.915-6.604-2.221-8.812-2.221h-110.77c-3.027 0-4.198 2.221-0.826 2.221h220.41" fill="#a6a69b"/>
 <path d="m270.6 4.152c1.303-3.917-6.618-2.221-8.824-2.221h-110.95c-3.031 0-4.205 2.221-0.827 2.221h220.6" fill="#97978e"/>
 <path d="m168.91,86.428c.032-5.215.064-10.429.097-15.644h-14.787c-.354,0-3.656-.171-3.656.141v7.729 7.331c0,1.137 2.753.54 3.656.54 4.666,0 10.457.498 14.69-.097" fill="#51514f"/>
 <path d="m168.621,72.715c.178-.573.066-1.327.096-1.931-3.278,0-18.153-1.541-18.153,1.431-.001,1.031 16.17.5 18.057.5" fill="#373736"/>
 <path d="m165.626,86.235v-9.749c0-1.068-.78-9.05 3.09-5.702 .969.837 0,8.425 0,9.749 0,3.168 1.342,6.805-3.09,5.702" fill="#373736"/>
 <path d="m197.01,86.911c.033-5.215.064-10.429.098-15.644h-14.865c-.354,0-3.676-.17-3.676.14v7.682 7.286c0,1.133 2.776.537 3.676.537l14.767-.001" fill="#51514f"/>
 <path d="m196.722,73.102c.032-.612.064-1.224.097-1.835h-10.49c-2.324,0-7.762-1.348-7.762,1.431 0,.969 16.359.634 18.155.404" fill="#373736"/>
 <path d="m193.728,86.621v-9.688c0-1.062-.768-9.018 3.091-5.666 .965.838 0,8.368 0,9.688 0,3.167 1.332,6.764-3.091,5.666" fill="#373736"/>
 <path d="m224.243,86.621c.033-5.214.064-10.429.098-15.644h-14.788c-.353,0-3.656-.17-3.656.139v7.682 7.286c0,1.131 2.758.537 3.656.537h24.69" fill="#51514f"/>
 <path d="m224.049,72.812c1.055-4.183-18.153-1.308-18.153-1.333 0,2.775 5.398,1.43 7.719,1.43 3.385-.001 7.225.253 10.434-.097" fill="#373736"/>
 <path d="m220.96,86.331c.021-3.229.04-6.458.061-9.688 .007-1.071-.761-8.882 3.028-5.666 1.083.918 0,9.464 0,10.966 0,2.994.899,5.366-3.089,4.388" fill="#373736"/>
 <path d="m250.703,86.621c.032-5.214.064-10.429.097-15.644h-14.788c-.352,0-3.656-.17-3.656.139v7.682 7.286c0,1.131 2.758.537 3.656.537h24.691" fill="#51514f"/>
 <path d="m250.415,72.812c.031-.611.063-1.223.095-1.834-3.279,0-18.154-1.542-18.154,1.431-.001.967 16.266.633 18.059.403" fill="#373736"/>
 <path d="m247.419,86.331v-9.688c0-1.062-.769-9.017 3.09-5.666 .965.837 0,8.368 0,9.688 0,3.167 1.332,6.764-3.09,5.666" fill="#373736"/>
 <path d="m169.49,41.814c0-1.933.519-15.162-.47-15.162h-9.411c-1.389,0-7.505-.938-8.563,0-1.177,1.042.3,15.258.47,15.258 5.86.001 12.315.569 17.974-.096" fill="#51514f"/>
 <path d="m169.2,28.488c.033-.612.064-1.223.098-1.835h-10.491c-2.323,0-7.761-1.348-7.761,1.431-.001.969 16.358.632 18.154.404" fill="#373736"/>
 <path d="m166.21 41.331v-14.513c0-0.19 2.849-0.424 3.091-0.165 1.086 1.166 0 8.414 0 10.034-1e-3 3.001 0.995 5.689-3.091 4.644" fill="#373736"/>
 <path d="m196.722,41.621c.032-4.989.064-9.979.097-14.968h-14.788c-.366,0-3.657-.183-3.657.149v7.994c0,6.162-1.351,6.824 4.782,6.824l13.566.001" fill="#51514f"/>
 <path d="m196.432,28.488c.032-.612.064-1.223.097-1.835-3.279,0-18.155-1.542-18.155,1.431 0,.969 16.268.633 18.058.404" fill="#373736"/>
 <path d="m193.44 41.042v-14.227c0-0.183 2.852-0.42 3.09-0.162 1.069 1.161 0 8.233 0 9.836 0 2.99 0.964 5.581-3.09 4.553" fill="#373736"/>
 <path d="m223.471,41.911c0-1.916.519-14.968-.47-14.968h-9.41c-1.379,0-7.518-.935-8.564,0-1.164,1.04.289,15.064.47,15.064 5.86,0 12.314.568 17.974-.096" fill="#51514f"/>
 <path d="m223.18 28.874c0.868-3.337-4.28-1.931-6.39-1.931-1.748 0-10.576-1.229-11.765 0-2.578 2.666 5.912 1.931 6.391 1.931h21.764" fill="#373736"/>
 <path d="m220.19 41.331v-14.227c0-0.188 2.756-0.413 2.993-0.162 1.068 1.131 0 8.318 0 9.902 0 2.856 0.897 5.814-2.993 4.487" fill="#373736"/>
 <path d="m250.896,41.911c0-1.916.519-14.968-.47-14.968h-9.41c-1.379,0-7.518-.935-8.564,0-1.164,1.04.29,15.064.47,15.064 5.861,0 12.314.568 17.974-.096" fill="#51514f"/>
 <path d="m250.61 28.874c0.868-3.337-4.281-1.931-6.391-1.931-1.747 0-10.575-1.229-11.764 0-2.578 2.666 5.912 1.931 6.391 1.931h21.764" fill="#373736"/>
 <path d="m247.516,41.331c.022-3.278.044-6.557.065-9.836 .011-1.464.021-2.928.03-4.391 .001-.19 2.756-.413 2.994-.162 1.067,1.129 0,8.32 0,9.902 .001,2.911.927,5.791-3.089,4.487" fill="#373736"/>
 <path d="m168.91,64.121c.032-5.086.064-10.171.097-15.257h-14.787c-.369,0-3.656-.186-3.656.152v8.148c0,6.212-1.398,6.957 4.781,6.957h23.565" fill="#51514f"/>
 <path d="m168.621,50.698c.031-.611.064-1.223.096-1.834-3.278,0-18.153-1.541-18.153,1.431-.001.968 16.268.633 18.057.403" fill="#373736"/>
 <path d="m165.63 63.542v-14.513c0-0.19 2.849-0.424 3.09-0.165 1.087 1.166 0 8.414 0 10.034 0 3 0.996 5.689-3.09 4.644" fill="#373736"/>
 <path d="m196.432,64.121c.032-5.086.064-10.171.097-15.257h-14.789c-.368,0-3.656-.186-3.656.152v8.148c0,6.212-1.398,6.957 4.782,6.957h23.566" fill="#51514f"/>
 <path d="m196.239,50.698c1.054-4.183-18.155-1.308-18.155-1.334 0,2.775 5.399,1.431 7.721,1.431 3.385-.001 7.223.253 10.434-.097" fill="#373736"/>
 <path d="m193.149,63.542c.021-3.345.044-6.689.066-10.034 .009-1.493.02-2.987.029-4.479 .001-.197 2.754-.417 2.994-.165 1.08,1.133 0,8.44 0,10.034 .001,3.014.988,5.673-3.089,4.644" fill="#373736"/>
 <path d="m223.76,63.832c0-1.942.519-15.258-.47-15.258h-9.411c-1.389,0-7.505-.938-8.563,0-1.177,1.042.3,15.258.47,15.258h27.974" fill="#51514f"/>
 <path d="m223.47 50.505c0.869-3.338-4.28-1.932-6.391-1.932-1.747 0-10.576-1.229-11.765 0-2.579 2.666 5.913 1.932 6.391 1.932h21.765" fill="#373736"/>
 <path d="m220.48 63.251v-14.513c0-0.33 2.993-0.28 2.993-0.018v10.405c0 2.822 0.769 5.383-2.993 4.126" fill="#373736"/>
 <path d="m250.22,64.121c0-1.942.52-15.257-.47-15.257h-9.411c-1.389,0-7.506-.937-8.564,0-1.177,1.042.3,15.257.47,15.257h27.975" fill="#51514f"/>
 <path d="m249.931,50.698c1.054-4.183-18.156-1.308-18.156-1.334 0,2.775 5.399,1.431 7.721,1.431 3.385-.001 7.224.253 10.435-.097" fill="#373736"/>
 <path d="m246.84,63.542c.022-3.345.045-6.689.065-10.034 .011-1.493.021-2.987.03-4.479 .001-.197 2.754-.417 2.995-.165 1.08,1.133 0,8.439 0,10.034 .001,3.014.988,5.673-3.09,4.644" fill="#373736"/>
 <path d="m169.103,19.507c0-1.942.52-15.258-.469-15.258h-9.411c-1.389,0-7.506-.938-8.564,0-1.178,1.042.3,15.258.47,15.258h27.974" fill="#51514f"/>
 <path d="m168.814,6.084c1.055-4.185-18.155-1.309-18.155-1.334 0,2.775 5.398,1.431 7.721,1.431 3.385-.001 7.222.252 10.434-.097" fill="#373736"/>
 <path d="m165.723,18.928c.022-3.345.045-6.69.065-10.034 .011-1.493.021-2.986.03-4.479 .001-.197 2.754-.417 2.995-.165 1.08,1.133 0,8.439 0,10.034 .001,3.014.988,5.674-3.09,4.644" fill="#373736"/>
 <path d="m196.239,19.507c0-1.942.519-15.258-.47-15.258h-9.41c-1.389,0-7.505-.938-8.563,0-1.179,1.042.299,15.258.47,15.258h27.973" fill="#51514f"/>
 <path d="m195.949,6.084c1.056-4.185-18.153-1.309-18.153-1.334 0,2.775 5.397,1.431 7.719,1.431 3.386-.001 7.223.252 10.434-.097" fill="#373736"/>
 <path d="m192.859,18.928c.022-3.345.044-6.69.066-10.034 .01-1.493.021-2.986.029-4.479 .001-.197 2.754-.417 2.994-.165 1.08,1.132 0,8.439 0,10.034 .001,3.014.989,5.674-3.089,4.644" fill="#373736"/>
 <path d="m223.471,19.796c0-1.942.519-15.257-.47-15.257h-9.41c-1.389,0-7.506-.938-8.564,0-1.179,1.042.299,15.257.47,15.257h27.974" fill="#51514f"/>
 <path d="m223.181,6.374c1.055-4.184-18.154-1.309-18.154-1.334 0,2.775 5.398,1.431 7.721,1.431 3.385,0 7.223.253 10.433-.097" fill="#373736"/>
 <path d="m220.19 19.217v-14.513c0-0.195 2.753-0.418 2.993-0.165 1.08 1.135 0 8.438 0 10.034 0 2.921 1.014 5.682-2.993 4.644" fill="#373736"/>
 <path d="m250.22,19.796c0-1.942.52-15.257-.47-15.257h-9.411c-1.389,0-7.506-.938-8.564,0-1.178,1.042.3,15.257.47,15.257h27.975" fill="#51514f"/>
 <path d="m249.931,6.374c1.054-4.184-18.156-1.309-18.156-1.334 0,2.775 5.399,1.431 7.721,1.431 3.385,0 7.224.253 10.435-.097" fill="#373736"/>
 <path d="m246.84,19.217c.022-3.344.045-6.689.065-10.034 .011-1.493.021-2.986.03-4.479 .001-.197 2.754-.417 2.995-.165 1.08,1.133 0,8.439 0,10.034 .001,3.014.988,5.674-3.09,4.644" fill="#373736"/>
 <path d="m169.2,106.804c.033-4.249.064-8.498.098-12.747h-13.878c-6.01,0-4.856.321-4.856,6.421s-1.153,6.422 4.856,6.422c4.37,0 9.842.448 13.78-.096" fill="#51514f"/>
 <path d="m168.91,95.892c.032-.611.064-1.224.097-1.834h-10.489c-2.322,0-7.761-1.348-7.761,1.43-.001.968 16.354.632 18.153.404" fill="#373736"/>
 <path d="m165.917,106.804c0-1.405-1.004-16.886 3.09-12.747 .967.978 0,7.687 0,9.098-.001,3.157.53,4.421-3.09,3.649" fill="#373736"/>
 <path d="m196.432,106.708c.032-4.282.064-8.563.097-12.844h-13.877c-6.01,0-4.856.322-4.856,6.422s-1.153,6.422 4.856,6.422h23.78" fill="#51514f"/>
 <path d="m196.239,95.699c1.055-4.185-18.155-1.309-18.155-1.335 0,2.775 5.398,1.431 7.721,1.431 3.385,0 7.222.252 10.434-.096" fill="#373736"/>
 <path d="m193.149,106.708c.01-1.448-.919-16.811 3.09-12.844 .96.949 0,7.709 0,9.099 0,2.798.603,4.721-3.09,3.745" fill="#373736"/>
 <path d="m223.278,106.997c.033-4.281.064-8.563.098-12.843h-13.878c-6.01,0-4.856.321-4.856,6.421s-1.153,6.422 4.856,6.422h23.78" fill="#51514f"/>
 <path d="m223.084,95.987c1.053-4.181-18.155-1.308-18.155-1.333 0,2.775 5.4,1.43 7.721,1.43 3.385.001 7.225.255 10.434-.097" fill="#373736"/>
 <path d="m220 107c0.011-1.448-0.919-16.81 3.09-12.843 0.959 0.949 0 7.708 0 9.099-1e-3 2.797 0.603 4.72-3.09 3.744" fill="#373736"/>
 <path d="m250.22 107c0-2.352 1.213-12.843-1.037-12.843h-10.323c-1.075 0-6.592-0.777-7.374 0-1.211 1.205-0.437 12.843 1.038 12.843h27.696" fill="#51514f"/>
 <path d="m249.931,95.987c1.053-4.181-18.156-1.308-18.156-1.333 0,2.775 5.4,1.43 7.721,1.43 3.385.001 7.226.255 10.435-.097" fill="#373736"/>
 <path d="m246.84,106.997c.011-1.448-.919-16.811 3.091-12.843 .959.949 0,7.708 0,9.099 0,2.798.604,4.72-3.091,3.744" fill="#373736"/>
 <path d="m169.393,127.759c-.037-1.847.277-14.1-.767-14.1h-18.134c.605,0-1.816,12.725.931,12.92 5.857.416 12.278,1.42 17.97,1.18" fill="#51514f"/>
 <path d="m168.81 115.59c0.869-3.338-4.281-1.932-6.391-1.932-1.748 0-10.576-1.229-11.765 0-2.579 2.666 5.913 1.932 6.391 1.932h21.765" fill="#373736"/>
 <path d="m166.11,127.662c-.097-4.668-.194-9.335-.29-14.003 5.451-1.395 3.279,10.332 3.38,14.003-.951,0-2.17.226-3.09,0" fill="#373736"/>
 <path d="m196.62 126.79c0-2.352 1.213-12.844-1.037-12.844h-10.323c-1.076 0-6.593-0.776-7.374 0-1.213 1.205-0.437 12.844 1.038 12.844h27.696" fill="#51514f"/>
 <path d="m196.34 115.88c0.868-3.338-4.281-1.932-6.391-1.932-1.748 0-10.577-1.229-11.766 0-2.579 2.666 5.913 1.932 6.391 1.932h21.766" fill="#373736"/>
 <path d="m193.342,126.794c0-1.439-1.022-16.826 2.994-12.844 .959.952 0,7.707 0,9.099 0,2.719.646,4.727-2.994,3.745" fill="#373736"/>
 <path d="m223.278,126.794c.033-4.281.064-8.563.098-12.844h-13.878c-6.01,0-4.856.321-4.856,6.421s-1.153,6.423 4.856,6.423h23.78" fill="#51514f"/>
 <path d="m223.08 115.88c0.869-3.338-4.281-1.932-6.391-1.932-1.748 0-10.576-1.229-11.765 0-2.579 2.666 5.913 1.932 6.391 1.932h21.765" fill="#373736"/>
 <path d="m219.995,126.794c.011-1.448-.919-16.81 3.09-12.844 .959.949 0,7.709 0,9.099-.001,2.798.603,4.721-3.09,3.745" fill="#373736"/>
 <path d="m250.61 127.08c0-2.351 1.212-12.843-1.038-12.843h-10.322c-1.076 0-6.592-0.777-7.373 0-1.213 1.204-0.438 12.843 1.037 12.843h27.696" fill="#51514f"/>
 <path d="m250.317,116.074c1.054-4.183-18.155-1.309-18.155-1.334 0,2.775 5.398,1.431 7.721,1.431 3.384,0 7.225.255 10.434-.097" fill="#373736"/>
 <path d="m247.323,127.083c0-1.438-1.022-16.825 2.994-12.843 .96.951 0,7.707 0,9.099 0,2.719.645,4.726-2.994,3.744" fill="#373736"/>
 <path d="m169.103,146.301c0-3.226 1.938-12.845-1.78-12.845-1.595,0-16.953-.171-16.953.165 0,3.209-1.921,12.775 1.78,12.775 5.526,0 11.62.513 16.953-.095" fill="#51514f"/>
 <path d="m168.81 135.39c0.868-3.337-4.282-1.931-6.391-1.931-1.748 0-10.576-1.229-11.765 0-2.578 2.665 5.912 1.931 6.391 1.931h21.765" fill="#373736"/>
 <path d="m165.723,146.301c.023-3.033.046-6.066.068-9.1 .004-.482-.348-3.381.028-3.745 .26-.251 2.994-.031 2.994.165 .001,3.493 2.414,14.466-3.09,12.68" fill="#373736"/>
 <path d="m196.432,146.59c.032-4.281.064-8.563.097-12.844h-13.877c-.641,0-4.398-.492-4.856,0-.768.823 0,5.999 0,7.116 0,5.829-.91,5.823 4.856,5.823 4.371.001 9.838.447 13.78-.095" fill="#51514f"/>
 <path d="m196.24 135.68c0.869-3.338-4.281-1.932-6.391-1.932-1.747 0-10.576-1.229-11.765 0-2.579 2.666 5.913 1.932 6.391 1.932h21.765" fill="#373736"/>
 <path d="m193.149,146.59c.022-3.033.046-6.066.068-9.099 .003-.482-.348-3.382.028-3.745 .26-.251 2.993-.032 2.993.164 .001,3.492 2.413,14.47-3.089,12.68" fill="#373736"/>
 <path d="m223.568,146.301c.032-4.282.064-8.563.097-12.845h-13.878c-.64,0-4.399-.491-4.857,0-.767.823 0,5.998 0,7.116 0,5.83-.909,5.824 4.857,5.824 4.372,0 9.839.443 13.781-.095" fill="#51514f"/>
 <path d="m223.278,135.387c.178-.573.066-1.326.098-1.931-3.279,0-18.156-1.541-18.156,1.431-.001,1.03 16.174.5 18.058.5" fill="#373736"/>
 <path d="m220.285,146.301c.023-3.033.045-6.066.068-9.1 .004-.482-.349-3.381.028-3.745 .26-.251 2.994-.031 2.994.165 0,3.493 2.413,14.466-3.09,12.68" fill="#373736"/>
 <path d="m250.606,146.59c0-3.226 1.937-12.844-1.781-12.844-1.594,0-16.952-.171-16.952.164 0,3.209-1.92,12.775 1.78,12.775 5.523.001 11.624.519 16.953-.095" fill="#51514f"/>
 <path d="m250.32 135.68c0.869-3.338-4.281-1.932-6.391-1.932-1.748 0-10.576-1.229-11.765 0-2.579 2.666 5.913 1.932 6.391 1.932h21.765" fill="#373736"/>
 <path d="m247.323,146.59v-9.099c0-.479-.373-3.383 0-3.745 .258-.251 2.994-.031 2.994.164 0,3.422 2.328,14.498-2.994,12.68" fill="#373736"/>
 <path d="m270.306,19.796v-14.767c0-.608-10.83-1.552-11.878-.587-1.554,1.43 0,12.492 0,14.859 0,1.248 10.315.664 11.878.495" fill="#51514f"/>
 <path d="m270.02 6.374c0.897-3.176-10.52-3.12-11.588-1.932-2.395 2.665 10.178 1.932 11.588 1.932" fill="#373736"/>
 <path d="m270.306,41.814v-14.768c0-.608-10.83-1.552-11.878-.587-1.554,1.43 0,12.492 0,14.86 0,1.248 10.315.664 11.878.495" fill="#51514f"/>
 <path d="m270.02 28.391c0.897-3.176-10.52-3.12-11.588-1.932-2.395 2.666 10.178 1.932 11.588 1.932" fill="#373736"/>
 <path d="m270.403,63.928c.032-5.15.064-10.301.097-15.451h-11.121c-1.648,0-.757,6.932-.757,8.406 0,2.555-1.432,7.045 1.605,7.045h20.176" fill="#51514f"/>
 <path d="m270.113,50.409c.188-.563.067-1.333.098-1.932-2.691,0-11.589-1.476-11.589,1.431 0,1.045 10.224.501 11.491.501" fill="#373736"/>
 <path d="m271.078,86.235c.033-5.15.065-10.3.098-15.451h-11.327c-3.028,0-1.518,5.914-1.518,8.406 0,2.432-1.398,7.044 1.518,7.044l11.229.001" fill="#51514f"/>
 <path d="m270.79,72.715c.189-.561.066-1.334.096-1.931-2.775,0-12.555-1.494-12.555,1.431 0,1.042 11.097.5 12.459.5" fill="#373736"/>
 <path d="m271.078,106.804c.033-4.28.065-8.563.098-12.843h-11.242c-2.903,0-1.505,4.697-1.505,7.116 0,3.702-1.383,5.823 2.527,5.823 3.187,0 7.359.285 10.122-.096" fill="#51514f"/>
 <path d="m271.368,95.795c.033-.611.064-1.223.098-1.834-2.817,0-13.037-1.498-13.037,1.43-.001.996 11.639.608 12.939.404" fill="#373736"/>
 <path d="m271.368,126.794c.033-4.281.064-8.563.098-12.844h-11.148c-4.015,0-2.371,3.504-2.371,7.116 0,3.523-1.384,5.823 2.371,5.823 3.478.001 8.002.36 11.05-.095" fill="#51514f"/>
 <path d="m271.078,115.784c.033-.61.065-1.223.098-1.834-2.835,0-13.229-1.502-13.229,1.431-.001.996 11.813.608 13.131.403" fill="#373736"/>
 <path d="m169.2,167.448c.033-4.86.064-9.722.098-14.582h-13.878c-.643,0-4.396-.492-4.856,0-.784.837 0,6.16 0,7.291v7.127c0,.36 4.395.164 4.856.164h23.78" fill="#51514f"/>
 <path d="m223.181,167.448c0-1.492.142-14.292-.138-14.292-2.688,0-15.626-1.756-17.147,0-.917,1.057.511,14.292.139,14.292h27.146" fill="#51514f"/>
 <path d="m250.415,170.442c.031-5.858.063-11.718.095-17.576h-14.787c-.84,0-3.656-.564-3.656.495v8.341 8.342c0,1.06 2.816.494 3.656.494 4.668,0 10.453.498 14.692-.096" fill="#51514f"/>
 <path d="m271.368,145.914c.033-4.089.064-8.176.098-12.265h-10.751c-3.746,0-2.286,2.727-2.286,6.18s-1.46,6.181 2.286,6.181c3.343,0 7.743.36 10.653-.096" fill="#51514f"/>
 <path d="m270.79,165.228c.031-4.12.064-8.241.096-12.361h-9.987c-3.936,0-2.47,2.505-2.47,6.181s-1.466,6.181 2.47,6.181l9.891-.001" fill="#51514f"/>
 <path d="m270.79,135.484c.031-.611.064-1.224.096-1.835-2.159,0-12.264-.979-12.264.918s10.372.917 12.168.917" fill="#373736"/>
 <path d="m111.453,160.978c-.494-31.174-1.204-62.247-.294-93.41 .189-6.463-1.128-12.837-1.155-19.284-.028-6.914.755-14.103 2.111-20.883 .875-4.375 1.75-8.75 2.625-13.124 .935-4.676 2.835-3.472 7.507-3.703 6.836-.338 14.281-3.727 20.881-5.553v98.466 51.615c0,2.702 1.304,5.973-1.75,5.973h-28.08c-.613,0-1.298-.029-1.845-.097" fill="#373736"/>
 <path d="m143.416,21.148-18.803,4.279-11.061,2.517c-2.798.637-2.515.901-3.548,3.827l34.572-6.566-1.16-4.057" fill="#7f7f79"/>
 <path d="m144.479,43.166-19.384,3.5c-3.443.622-16.867.426-15.38,5.674l20.764-3.049 11.875-1.743c2.967-.436 2.465-1.337 2.125-4.382" fill="#7f7f79"/>
 <path d="m144.19,65.569-19.782,2.347-11.352,1.346c-3.235.384-3.182.077-3.053,3.646l34.958-3.283-.771-4.056" fill="#7f7f79"/>
 <path d="m143.802,87.973-34.087,2.607c.747,3.626.457,3.297 3.936,3.063l13.252-.891 13.251-.891c3.649-.245 3.246-.069 3.648-3.888" fill="#7f7f79"/>
 <path d="m144.19,107.77-20.173.895-11.576.513c-3.291.146-3.246-.195-3.113,3.421l20.172-.224 12.356-.137c3.347-.039 2.334-1.05 2.334-4.468" fill="#7f7f79"/>
 <path d="m144.19,128.338-34.186-1.834c0,3.073-.63,3.321 2.228,3.589l11.909,1.118 20.821,1.956-.772-4.829" fill="#7f7f79"/>
 <path d="m143.61 149.1-33.605-3.863c-1.502 5.359 10.772 4.502 14.241 4.987l19.558 2.738c-0.067-1.288-0.136-2.575-0.194-3.862" fill="#7f7f79"/>
 <path d="m130.96 161.36 3.422-11.244c1.017-3.34 0.112-6.639-0.284-10.098-0.497-4.343-0.918-8.411-0.918-12.752v-119.25c0-1.75-2.221-1.929-2.221-1.535v100.64c1e-3 17.977 1.444 36.671 1e-3 54.239" fill="#7f7f79"/>
 <path d="m121.786,8.981c-1.14,26.078-2.421,52.15-3.818,78.214-1.361,25.403 1.501,50.723-2.556,75.907 4.837,1.292 5.312-10.567 5.312-14.173v-18.491c0-13.727-.354-27.501.076-41.222 .418-13.382-.519-27.352.609-40.657 1.144-13.481 1.933-26.73 2.211-40.255-.506.259-1.595.516-1.834.677" fill="#7f7f79"/>
 <path d="m150.08,19.41v-10.494c0-.747.916-9.456-2.414-6.502-1.055.936 0,9.044 0,10.494 0,2.366-1.494,7.746 2.414,6.502" fill="#b6b6a8"/>
 <path d="m150.659,41.427v-8.65c0-.223.359-8.646-1.834-5.931-.974,1.205 0,7.169 0,8.708 0,2.157-1.262,6.801 1.834,5.873" fill="#b6b6a8"/>
 <path d="m150.08,63.348v-8.421c0-.705.835-7.7-1.642-5.774-.79.613 0,7.377 0,8.421 0,1.975-1.233,6.341 1.642,5.774" fill="#b6b6a8"/>
 <path d="m150.466,86.428c.032-5.312.064-10.623.097-15.934-4.978-1.199-3.091,4.641-3.091,8.015 0,3.776-1.734,9.011 2.994,7.919" fill="#b6b6a8"/>
 <path d="m149.886,106.321c.032-4.12.064-8.24.097-12.36-4.059-1.265-2.606,3.637-2.606,6.181-.001,2.667-1.307,7.43 2.509,6.179" fill="#b6b6a8"/>
 <path d="m148.148,96.085c0-1.675-.093-13.352-1.062-12.457-1.296,1.196-.292,12.685 1.062,12.457" fill="#b6b6a8"/>
 <path d="m149.886,126.311c.032-4.218.064-8.434.097-12.651-3.772-1.143-2.317,3.996-2.317,6.325 0,2.39-1.3,7.53 2.22,6.326" fill="#b6b6a8"/>
 <path d="m149.79,145.431v-6.354c0-.232.378-7.408-1.642-5.041-1.309,1.533-.809,11.784 1.642,11.395" fill="#b6b6a8"/>
 <path d="m150.37,163.489c0-1.158.19-12.378-1.643-10.237-1.269,1.483-.809,10.605 1.643,10.237" fill="#b6b6a8"/>
 <path d="m168.81 154.51c0.702-3.044-5.795-1.642-7.761-1.642-1.396 0-9.605-1.035-10.49 0-2.084 2.435 7.049 1.642 7.761 1.642h20.49" fill="#373736"/>
 <path d="m166.69,167.448c.014-1.959-.929-16.352 2.124-14.196 .862.609 0,8.548 0,9.704 0,2.068 1.062,5.461-2.124,4.492" fill="#373736"/>
 <path d="m154.039,169.283-2.146-10.136c-.992-4.682.009-6.316-4.904-6.185 .452,3.583.903,7.167 1.354,10.75 .434,3.445 3.145,3.829 5.696,5.571" fill="#878780"/>
 <path d="m166.592,132.877 1.948,8.192 1.194,5.022c.166.699 1.399.838 1.396.333l-.078-10.506c-.024-3.356-1.447-2.279-4.46-3.041" fill="#97978e"/>
 <path d="m194.597,132.587c.579,4.829 1.159,9.657 1.739,14.485 3.384.088 1.916-6.297 1.948-8.636 .067-4.746 1.244-5.615-3.687-5.849" fill="#97978e"/>
 <path d="m149.69 144.85c0.469-3.334 4.309-15.193-1.545-15.645v16.224l1.545-0.579" fill="#b6b6a8"/>
 <path d="m168.428,131.235c1.712,1.585 5.949,5.745 8.449,3.911 .701-.514 1.979-1.229.387-1.545-2.659-.529-9.878-2.388-7.581-6.325l-3.863,1.449c.788.789 1.976,1.992 2.608,2.51" fill="#b6b6a8"/>
 <path d="m170.07,148.134c-.698-3.486-1.498-6.87-1.642-10.429 .864,2.224 1.715,4.452 2.606,6.664 1.011-2.734 1.053-5.415 1.256-8.306 .071,4.407.621,9.049 0,13.423-.738-.362-1.697-.813-2.22-1.352" fill="#7f7f79"/>
 <path d="m197.204,134.036c1.482,4.195 1.836,8.43 2.415,12.843-.057-3.719-.113-7.438-.17-11.156-.057-3.675-1.087-3.763-4.562-4.198l2.317,2.511" fill="#7f7f79"/>
 <path d="m166.11,127.662c2.185,1.027 3.64,3.875 5.552,2.27 2.088-1.751 5.612.472 6.712-2.076-2.308.288-4.472.482-6.796.482-1.352,0-1.275-1.433-2.618-.627-.858.514-1.904.407-2.85-.049" fill="#c4c4b4"/>
 <path d="m134.242,151.418c-.563,3.231.105,12.08-4.731,10.333 .631-3.016.536-12.105 4.731-10.333" fill="#7f7f79"/>
 <path d="m133.18,132.008c.351,2.954.103,15.57 3.284,15.838-.713-4.277-.381-12.636-3.284-15.838" fill="#97978e"/>
 <path d="m121.01 131.24c0 2.937-1.749 14.941 1.738 14.968-0.077-2.895 1.238-14.439-1.738-14.968" fill="#97978e"/>
 <path d="m111.066,130.367c.032,4.668.065,9.334.097,14.002 .165-2.582 2.258-13.145-.097-14.002" fill="#97978e"/>
 <path d="m121.013,149.97c-.519,2.434-3.995,11.857-1.063,12.167 .805-4.024 1.609-8.047 2.414-12.071-.081.007-1.462-.089-1.351-.096" fill="#97978e"/>
 <path d="m134.24 151.42-1.834 10.525c2.086 0.061 4.938-10.468 1.834-10.525" fill="#97978e"/>
 <path d="m121.21 126.7v-13.423h-0.482c-1e-3 3.035-1.3 11.705 0.482 13.423" fill="#97978e"/>
 <path d="m224.049,153.35c-.664,3.32-5.325,15.207-.868,16.319 1.147-5.539 1.328-12.998 3.669-18.155-.853.59-2.128,1.467-2.801,1.836" fill="#7f7f79"/>
 <path d="m250.415,152.866c.438,6.268-1.73,11.674.095,17.672 4.957-.887 2.299-15.196 2.415-19.313-.772.561-1.835,1.029-2.51,1.641" fill="#7f7f79"/>
 <path d="m221.83,132.78c.422,3.125-.04,15.749 4.442,14.292-.439-3.18.089-15.234-4.442-14.292" fill="#97978e"/>
 <path d="m224.243,132.974c.934,5.183 1.867,10.365 2.801,15.548 2.844-.026.534-6.297.241-8.224-.36-2.356.22-7.247-3.042-7.324" fill="#a6a69b"/>
 <path d="m226.174,133.554c1.03,4.796 2.061,9.591 3.091,14.387 3.669-.853.741-15.075-3.091-14.387" fill="#b6b6a8"/>
 <path d="m232.162,135.678-4.249-.966c.771,2.91 1.29,11.328 4.636,11.589 5.86.456.492-8.305-.387-10.623" fill="#666662"/>
 <path d="m239.984,134.132c-3.848-.189-7.643-.391-11.491-.29 .804,3.767 1.609,7.533 2.414,11.299-.257-3.183-.472-6.184-.289-9.367l2.51,3.091c1.567-4.476 2.182-3.994 6.856-4.733" fill="#373736"/>
 <path d="m157.323,154.218-2.13,10.731c-.628,3.162 4.294,3.303 6.669,3.657 .45-4.86.9-9.721 1.351-14.58-1.963.065-3.927.134-5.89.192" fill="#373736"/>
 <path d="m187.644,152.577-1.286,6.51c-.506,2.556.577,2.087 3.024,2.856l1.063-9.077c-.854-.096-1.96-.449-2.801-.289" fill="#373736"/>
 <path d="m218.739,153.35c-.184,5.076-1.204,9.441-2.414,14.388l4.731.581c.389-5.277.647-10.095 2.125-15.162-1.461.096-3.053.244-4.442.193" fill="#373736"/>
 <path d="m158.771,134.712c.174,3.408-1.631,12.728 3.572,11.298-.071-2.599-.143-5.197-.214-7.796-.086-3.166-.197-2.759-3.358-3.502" fill="#373736"/>
 <path d="m157.611,114.818c.429,3.513-.676,12.786 4.251,12.458-.075-3.065-.149-6.13-.225-9.196-.087-3.569-.707-2.523-4.026-3.262" fill="#373736"/>
 <path d="m186.292,135.195c.289,3.701.58,7.404.87,11.105 4.127.696 2-8.876 1.931-11.589-.78.207-2.281.26-2.801.484" fill="#373736"/>
 <path d="m187.644,126.406c.032-3.766.064-7.532.097-11.298-4.297-1.189-2.801,3.44-2.801,6.3 0,2.799-.978,6.147 2.704,4.998" fill="#373736"/>
 <path d="m271.368,158.661c-2.219-3.146-4.976-3.967-8.594-2.512-.856.345-1.705.867-2.222,1.642-.641.962-4.255-2.072-5.52-1.724-2.788.767-3.315.582-4.356,3.232-.393.996-5.131-.443-6.25-.639 1.765-2.902-4.324-4.672-6.566-3.863-1.259.453-2.34,1.811-3.079,2.857-.656.931-3.632-.832-4.646-1.216-.703,3.981-5.315,8.936-7.559,3.223-.65-1.652-4.451-.799-5.675-.215-2.316,1.106-4.214.676-6.618.211-2.191-.424-4.25-1.058-6.389-1.713-3.577-1.097-2.6-1.851-4.405-4.93-1.604-2.739-4.192.729-5.761.72-1.918-.013-4.349-2.266-6.221-2.876l-7.838-2.552c-1.649-.537-4.02,2.318-5.158,3.206-3.511,2.741-7.051,7.356-11.475,8.063-3.483.556-4.26.213-5.995,3.229-1.012,1.76-4.36,2.642-6.282,1.639-1.481-.773-5.106-1.742-5.99-2.983-.697-.979-1.131-5.28-1.642-6.663-3.014,2.784-5.539,1.251-8.242-.79-2.207-1.669-6.207-.59-8.882-.197-6.076.893-6.294-4.981-10.061-7.993-1.834-1.467-5.347-1.448-7.551-1.448-2.541,0-4.19-4.264-7.065-4.646-2.808-.374-7.888.551-8.319,4.066-3.732-2.014-5.393-3.387-9.546-2.765-4.141.622-4.44,5.758-4.843,8.848-2.609-.985-6.125-1.213-8.151.934-1.093,1.158-.834,3.802-1.729,4.249-2.491,1.245-2.77,1.033-2.77,3.747 0,7.026 8.423,10.249 14.292,10.867-1.78,5.339-2.704,5.379-7.927,7.605-.591.252.735,2.654.93,3.4 .648,2.479 2.694,2.666 4.99,3.701 3.924,1.769 6.655,2.901 10.978,3.82 1.918.407 3.197,2.43 4.551,3.783 .606.605-2.372,2.945-2.997,3.57 7.055,2.575 12.84,5.097 20.327,6.082 3.041.401 6.813.286 9.721,1.154 1.368.408 4.12.641 5.199,1.551 2.009,1.696.611,2.601 3.574,3.91 2.618,1.158 2.685,1.024 5.28-.273 1.289-.645 3.563.332 4.926.595 4.198.81 6.61,1.328 10.66,3.353 2.741,1.372 6.212,1.487 9.111,2.656 2.987,1.206 6.939,3.411 10.12,3.579 6.875.363 15.547,1.673 21.66-2.463 1.435-.97 2.849-1.936 4.342-2.811 2.059-1.206.893-1.78-.157-3.763-1.688-3.188 1.565-7.287 4.841-7.488 2.916-.179 6.966,2.041 8.862,3.938 3.026,3.025 4.953,4.004 9.346,4.36 4.564.37 6.635.277 10.9-1.221 2.587-.907 8.021-3.735 10.856-3.136 6.128,1.295 11.841,1.459 17.85-.333 3.349-.998-.217-5.077 3.238-5.394 .882-.081 10.021-.715 10.021-.979 .003-13.095 1.506-27.38-.094-40.204" fill="#5e5e5b"/>
 <path d="m174.221,153.252c3.433.147 5.251-.17 8.045,1.972 .781.6.694,2.487 1.526,3.54 .669.848 1.71.52 2.562,1.104 3.175,2.177 3.836,2.993 3.379,6.874-.317,2.692-3.099,1.632-4.02,3.894 .748.142 1.376.92 2.123,1.063-.67,1.095-1.517,2.069-2.51,2.897 6.068,2.521 9.305,4.181 11.288,10.658 .49,1.601 5.611-.424 5.611,2.233 0,2.876-1.583,4.683-3.063,7.036-1.628,2.587-1.199,4.411-4.663,5.275-1.411.353-2.756.992-4.057,1.642-1.761.882.835,2.251-.261,3.101-3.594,2.785-4.38,2.339-3.408,6.46 .531,2.255 1.41,6.199-2.606,6.18 1.967-.36 5.129-.289 6.856-1.255 .569-.318 4.242-4.057 4.264-4.701 .079-2.38.51-12.479 5.103-9.592 .279-.598 1.613-4.685 1.798-4.741 2.336-.715 4.011-.857 5.493-2.79 1.302-1.698.866-3.051 1.62-4.961 1.167-2.955-.14-3.383-1.011-6.244-.527-1.732-2.436-1.379-1.721-3.859 .343-1.188 3.296-1.71 3.79-3.278 1.64-5.19.38-7.729-5.202-7.729-2.285,0-3.62-6.803-3.908-8.632-.406-2.566-1.364-1.807-1.643-3.94-.438-3.361-1.438-3.59-4.817-3.12-2.199.306-3.84.892-5.697-.435-1.813-1.295-3.027-2.721-5.215-3.38-5.232-1.582-7.159,1.495-9.656,4.728" fill="#73736e"/>
 <path d="m202.419,158.563c3.104,1.452 11.704,2.007 9.657,6.856 1.652.188 3.029-.088 4.03,1.267 1.11,1.502 1.816,3.447 3.694,3.562 1.135.069 2.846-2.607 3.941-1.065 .851,1.197 3.336,3.477 2.064,5.077-.497.627-3.326,3.353-3.013,4.391 .258.855 4.585,2.579 5.505,2.993 2.791,1.256 9.327,3.098 6.181,7.726 1.21-3.051 2.331-4.953 1.783-8.167-.534-3.132-2.511-4.113 1.696-6.307 2.298-1.199 2.594-4.939 2.124-7.166-.646-3.069-5.782-1.205-7.438-.475 1.205-5.112-3.796-2.349-5.795-2.897-3.518-.964-3.683-4.781-6.642-6.096-2.075-.922-5.369,2.475-8.084,1.509-3.087-1.097-6.659-.605-9.703-1.208" fill="#73736e"/>
 <path d="m243.654,174.979c3.489-.691 2.179-4.667 5.215-5.89 2.589-1.042 5.386,1.188 6.565,3.38 1.508-.759 3.478-8.305 6.136-5.646 1.995,1.995 6.196,5.376 6.709,8.156 .295-.897 1.099-1.629 1.448-2.51 .432.425 1.155.601 1.545,1.062 .072-5.607 3.096-18.154-5.698-18.154-1.642,0-2.793.692-4.248,1.255-1.566.606-.232,1.559-2.397,1.234-1.1-.165-2.092-1.05-3.026-1.623-1.578-.967-3.909.472-4.137,2.225 2.627.207 3.669-.512 3.669,2.292 0,1.971 2.958,1.466 1.448,4.371-1.504-1.018-3.646-3.142-5.648-2.415-2.874,1.044-2.443-5.177-5.359-.965-.646.935-.082,2.503-1.023,3.28-.592.49-3.647,1.472-3.709,1.549-1.503,1.87-1.017,6.232-1.158,8.399h3.668" fill="#73736e"/>
 <path d="m230.037,158.081c1.762-.822 3.238-.568 5.089-.351 1.119.132 2.823-1.773 4.594-1.773 1.591,0 3.015,2.483 3.434,3.858 .667,2.189 2.141,3.05 3.881,4.542 .762-4.569-2.268-9.356-6.276-10.477-2.555-.714-3.675-1.3-5.697.724-1.566,1.564-5.624.667-5.025,3.477" fill="#73736e"/>
 <path d="m140.519,155.475c3.476.806 2.788,6.682 3.283,9.656 2.644-.622 4.377-.673 7.091-.427 1.676.153 2.674,2.677 4.305,3.324-3.864,2.115-4.534,3.479-6.566,7.338-1.592,3.024-5.104,7.375.289,8.788-2.76,2.632-1.168,3.178 1.194,5.203 2.49,2.135 2.861,2.062 2.861,5.618 0,1.828 4.657.787 4.343,2.598-.436,2.504-1.087,4.225-2.895,6.087-.813-2.502-4.083-4.125-4.445-6.565-.463-3.119-4.322-2.161-5.789.289-.166-3.757.78-10.054-2.207-12.854-1.694-1.589-4.07.312-4.07-3.127 0-2.507-4.425.665-5.794-.53 .203,1.367-1.402,4.415-2.765,2.37l-3.512-5.269c1.736-.97 3.529-1.725 4.731-3.379-2.788-.736-5.565-1.594-8.401-2.125 2.868-3.604 6.434-3.511 9.546-.4 2.447,2.445 7.828-.937 9.865-2.593-3.02-2.618-3.967-2.512-8.016-2.512 4.871-3.306-2.946-3.172-4.829-2.993 .375-1.099.761-2.193 1.158-3.284-5.109.409-8.08,2.256-12.464,4.83-2.681,1.572-1.186,3.091-4.842,2.396-2.018-.385-4.714.117-5.871,1.949-2.931-3.226 1.653-5.771 4.25-6.421 1.276-.319.095-2.195 2.221-2.946 1.903-.672 3.679-.725 5.698-.869-2.79-3.907 6.993-6.071 9.56-6.276 4.276-.343 8.136,1.448 12.071,2.124" fill="#73736e"/>
 <path d="m82.096,168.028c3.117-.357 5.506-.168 8.112,1.834 1.627-3.572 4.099-6.398 6.611-9.375 1.077-1.274 3.405-1.078 5.088-1.513 1.926-.496 2.435-2.139 4.138-3.018-1.22-.117-8.841.908-9.173.675-.86-.603-.656-3.181-1.827-4.2-1.439-1.253-2.354-2.227-4.45-1.689 .444.653.382,1.519 1.062,2.221-3.401,1.102-5.523,1.077-8.402,3.283 2.861,1.62 8.427,2.635 6.767,6.574-.825,1.957-9.878,2.812-11.885,3.373l3.959,1.835" fill="#73736e"/>
 <path d="m157.901,168.028c-1.099.79-3.354,1.788-4.151,2.896-.612.851-.749,2.622-1.039,3.634s1.192.801 1.426,1.581c1.216,4.067-.916,8.626 3.054,10.715 3.193,1.679 3.898,5.632 3.898,9.353 0,2.329-.078,3.538-1.222,5.597-.626,1.126 2.414,3.726 3.25,4.561 1.193,1.192 3.365,2.515 4.249,3.863 .694,1.062-1.771,1.69-.049,2.606 1.037.553 2.143.89 3.25,1.282 2.35.833.064,2.388 3.772,2.388 1.624,0 4.692.624 5.958-.375 2.192-1.73 1.594-2.557-.807-3.188-2.576-.679-2.861-1.154-4.781-2.53-1.044-.75-4.833-2.594-4.833-3.89 0-2.229-.021-4.327-.387-6.53 2.393.479 4.25,1.054 6.483,2.023 3.215,1.395 3.695.631 6.36-1.347 1.895-1.405 3.726-2.048 5.966-2.632 3.806-.993 4.307-1.497 6.588-4.708-2.701,0-5.04-.044-7.648.608-3.795.95-5.244.499-9.043-.611-2.193-.642-4.142-2.275-6.388-2.608-3.818-.564-4.164-1.866-4.442-5.403l5.794.289c-2.036-.91-13.889-4.697-9.85-7.339l-4.074-4.644c-1.307-1.491.209-1.029.449-2.607 .731-4.786.552-6.286 4.301-9.262-5.163.504-4.029,1.836-6.084,6.278" fill="#51514f"/>
 <path d="m207.633,181.16c.323.942 2.705,5.355 2.457,5.983-.852,2.157-.841,4.008-1.473,6.085-1.227,4.023-9.054,3.742-6.585,8.982 3.13-2.282 6.814,3.515 8.72,5.123 2.075,1.754 7.348,2.894 10.353,2.894 3.746,0 7.421-2.489 10.863-2.029 3.574.478 4.534-3.31 8.592-2.604 3.821.666 7.081,1.38 10.99,1.114 3.847-.261 8.327-.537 8.327-5.076 0-3.114 1.854-.914 4.056-2.027 1.87-.946 2.608-3.212 3.958-4.731-1.73.915-10.212,1.401-10.51,2.023-2.04,4.261-3.802,3.846-8.513,3.771 .411-1.063.302-4.437 1.017-5.004 1.501-1.191 3.365-2.016 3.328-4.17-3.047,2.806-6.949,6.355-11.201,6.855-1.806.212-2.735-2.068-3.09-3.862-.603-3.046.581-2.806-2.222-5.506-.438,3.536-2.058,7.372-5.891,8.402l2.852-4.644c.892-1.453-.223-3.199-.438-4.868-.414-3.226-5.083-3.762-7.919-3.718-2.012.031-2.875.622-4.643-.4-1.437-.831-1.966-3.42-2.696-3.945-3.777-2.718-7.043.301-10.332,1.352" fill="#51514f"/>
 <path d="m79.489,172.76c-1.534,3.697-4.537,1.213-5.594,4.253-.882,2.535 2.792,5.354 4.362,7.12 3.994,4.492 11.691,1.207 15.234,6.299-2.172,1.54-1.262,3.016.386,4.442 .792.685 2.27.697 2.994,1.448 .496.514-.206,2.198.675,2.896 .95.754 4.932,1.355 6.282,2.031 .853.426 4.637-.045 5.771.054 4.673.407 9.372.74 13.731,2.356 .856.317 2.573.331 2.87,1.115 .798,2.102 2.154,3.229 4.614,3.229 1.108,0 1.608-.729 2.655-.574 1.933.286 1.822-.859 2.995-.874 1.734-.021 3.808.943 5.539,1.23 4.363.726 7.186,4.11 11.13,4.525 4.467.472 8.207,1.416 12.396,3.034-2.346-1.971-4.731-4.896-7.568-6.017-2.112-.833-7.93-.724-6.819-3.835-2.906,1.085-12.067-1.423-13.229-4.441-3.935,4.048-4.104-4.467-1.835-6.953-3.951-1.505-4.19,2.553-7.496-1.921-2.005-2.714-5.844-1.953-8.824-.638-3.585,1.581-5.689,1.466-9.161-.303-4.387-2.234-3.243-5.037-5.711-8.919-2.205,5.801-2.786,5.387-5.606.027-.807-1.534-3.905-.919-3.994-1.938-.191-2.197.059-4.277-1.794-5.815-.279,5.103-1.466,9.083 2.607,12.554-7.117-3.065-9.385-4.564-9.946-12.554l-4.056,4.441c-.827-2.061-1.603-4.4-2.608-6.272" fill="#51514f"/>
 <path d="m65.97,156.439c.484,4.844.764,6.461 4.257,9.954 3.187,3.187 6,2.224 10.035,3.275-2.678-1.967-8.412-4.89-7.34-8.981-.318.573-1.059.917-1.449,1.449-1.76-2.031-3.54-3.86-5.503-5.697" fill="#51514f"/>
 <path d="m174.22 167.64c-1.909-2.632-6.976-4.093-8.691-0.387 4.205-1.519 5.976 2.326 4.347 5.505 3.706-2.042 5.136-3.283 8.111 1.158 0.489-3.311-1.324-4.381-3.767-6.276" fill="#73736e"/>
 <path d="m179.44 159.14c-4.452-0.333-1.404 2.748 0 4.152v-4.152" fill="#73736e"/>
 <path d="m.4,149.583c-.097,2.329-.598,4.872-.313,7.154 .433,3.462 2.321,4.646 4.355,7.333 2.028,2.681 3.283,3.506 6.271,4.927 3.188,1.518 5.246,1.324 4.366,5.598-5.477.674.397,7.108 1.67,8.822 1.264,1.701 6.578,3.668 8.613,3.778 3.983.218 7.625.327 11.444-.724 1.675-.461 2.848-1.466 4.132-1.777 4.063-.987 1.827.113 4.655,1.488 2.831,1.374 7.89,1.158 11.006,1.158 1.913,0 4.207.264 6.086-.289 2.045-.603 2.701-2.35 4.775-1.356 4.168,1.998 7.742,1.748 12.318,1.356-.83-4.028-5.804-4.001-7.27-7.867-.072-.189-3.41-1.461-4.24-2.291-2.304-2.304-2.879-2.488-3.073-5.872-.193,3.159.033,5.947.193,9.077-3.519.132-9.711-.48-10.719-4.345-.357,2.023-.907,3.637.29,5.503-7.513,3.125-11.793-7.687-12.071-13.229-.35,1.077-1.105,2.447-1.159,3.571-.037.771 1.319,3.764 1.159,4.154-1.889,4.586-5.739-.462-6.953-2.223-1.292.984-.853,3.579-1.062,5.216-.203,1.594 1.691.581 0,2.221-.704.684-3.401.764-4.382.983-3.826.859-10.11-7.996-4.986-10.352-3.465-1.853-4.631-2.568-6.083-6.372-.764-2.001 1.731-1.896-.852-3.059-1.289-.58-2.292-1.954-3.301-2.93 3.225-1.022 8.933-1.473 8.884-5.794-3.726-.927-6.194,1.405-9.479-.077-3.3-1.491-.27-7.633 2.333-8.228-2.381-.535-4.824-.028-4.587-2.703 .255-2.895 3.463-2.75 5.939-2.222-1.781-1.021-1.597-3.339-2.8-4.152-1.235-.834-5.304-.215-6.84-.277-1.43-.058.138-8.437 1.574-9.011 2.49-.996 2.443-.814 4.783-.369 1.971.376 2.323,2.854 3.848.08 2.201-4.003 5.321-2.15 6.002,2.142 1.971-2.361 4.04-5.906 5.228-8.716 1.288-3.046 7.564-1.661 9.932-1.424-1.032-1.758-2.682-2.265-4.441-3.09 2.458-1.848 2.158-3.194 1.931-5.987h3.38c-1.115-.382-2.862-1.521-3.88-.809-.967.677-1.797,2.859-2.493,3.223-2.156,1.125-6.445-1.322-7.871.579-.998,1.332-1.906-.944-3.06.211-1.323,1.323-2.563,2.702-3.652,4.231-1.163,1.633-1.895,1.521-2.076,3.573-.135,1.531-.499,2.802-1.497,4.055-1.838-3.722-6.364-1.495-9.076,0-3.939,2.172-4.703,3.791-5.939,7.774-.982,3.165 2.484,5.297 3.238,8.042 .592,2.158 2.174,4.165-.1,5.14-1.949.841-2.842,2.488-4.15,4.156" fill="#62625e"/>
 <path d="m37.289,132.78c-3.892-.893-8.585.888-9.102,5.014-.198,1.582-2.138,3.401-2.051,4.275 .228,2.269 1.491,3.85 2.944,5.583-.222-2.264-1.511-5.393 1.062-6.567 .068.624.53,1.211.58,1.836 1.448-1.895 2.925-2.594 1.652-4.715-.775-1.292-.189-1.845.375-2.819 .811-1.397 3.394-2.371 4.54-2.607" fill="#62625e"/>
 <path d="m56.603,140.216c-3.361-2.252-11.943-.775-11.009,4.636 .729-.729 2.504-3.321 3.429-2.705 .854.572 1.03,2.159 2.287,1.782 2.836-.852 5.944-.757 8.384-2.649-1.005-.346-2.052-.859-3.091-1.064" fill="#62625e"/>
 <path d="m205.027,137.126c-1.348,1.194-2.071,6.729-.773,8.305 1.105,1.342 3.287.558 4.637.87 1.528.355 2.632.672 4.338,1.459 1.154.532 2.411,2.001 3.673,1.673 1.845-.48 2.524-1.418 4.334-1.126 2.361.382 2.645.33 4.645-.978 .956-.625-.432-1.336.102-1.898 .385-.404 2.238-1.376 2.223-1.353 2.618-3.998 1.005-5.736-3.121-6.745-1.128-.276.028-7.747-5.032-3.605-2.018,1.649-2.171,1.523-4.016,1.757-.533.067-1.184-1-1.738-1.063-.341-.039-2.389.931-3.041.965-1.151.063-3.788-1.497-4.08-1.303-1.334.887-2.459,1.518-2.151,3.042" fill="#5e5e5b"/>
 <path d="m219.029,134.712c.696-.804 4.051-3.304 4.203-1.256 .258,3.479.368,2.615 2.973,3.688 3.058,1.259 2.771,1.413 2.771,4.564 0,1.021-2.641,1.968-2.994,3.722-.396-1.677-.442-3.466.581-4.925-3.083-2.379-3.939,1.444-6.664,1.641 .65-1.738-.641-3.03-2.415-2.799l.193-1.353c2.656,1.219 3.043-1.957 1.352-3.282" fill="#73736e"/>
 <path d="m205.8 135.2c1.318-1.813 3.975-0.995 3.38 1.158 3.827 0.197 3.959 3.09 5.504 6.084-1.599-1.217-3.291-1.538-4.442-2.511-1.683-1.422-2.282-3.488-4.442-4.731" fill="#73736e"/>
 <path d="m203.868,139.058c-.825,1.746-.4,5.25.724,6.856 1.251,1.786 5.387-.125 7.388.869 2.579,1.281 2.169,2.778 5.216,2.511 1.63-.144 4.802-2.97 5.986.578l.579-1.157c.477.348 1.099.634 1.642.868-.357-.584-.425-1.342-.771-1.931l3.862,1.642c-.658-.45-2.494-3.856-2.512-3.863-1.332-.475-2.381.722-3.572.87-.868.107-.485-1.666-1.545-.87-.657.494-1.473.666-2.246.934-1.766.611-1.356-2.112-1.135-3.155-.74.669-2.407,3.199-3.331,2.946-1.309-.357-3.923-.898-4.973-1.496-.708-.403-1.413-.815-2.119-1.224-1.018-.587.441-1.268-.102-1.867-.777-.855-2.25-1.285-3.091-2.511" fill="#51514f"/>
 <path d="m177.988,140.216c.096,1.959-1.721,4.758 1.689,5.359 1.13.2 2.221-.012 3.332-.289 1.2-.3 2.183,1.056 3.301,1.504 3.348,1.339 4.243.373 5.535-2.47 .666-1.465 1.453-1.211.228-2.578-1.18-1.316-1.491-2.26-3.27-1.236-.401-2.435.136-7.183-3.92-4.186-1.31.968-1.769,1.561-3.37,1.24-1.406-.281-2.538,1.78-3.525,2.656" fill="#5e5e5b"/>
 <path d="m184.072,136.063c4.475-2.783 4.108,1.689 4.731,4.442 .403-.26 2.299-.987 2.801-.579 1.587,1.292.163,1.547.483,2.801 .426,1.674 2.394,2.706-.773,3.573 .38-1.959 1.462-3.292-.575-4.089-2.134-.834-2.574-3.037-4.736-.065 1.897-2.324-.017-4.275-1.931-6.083" fill="#73736e"/>
 <path d="m177.988,140.216c-.31,1.133-1.608,3.777-.676,4.925 .446.55 2.932.618 3.687.505 2.376-.356.933-1.96 2.01-3.788-.921.483-2.444,2.376-3.204,1.921-1.497-.898-1.882-1.816-1.817-3.563" fill="#51514f"/>
 <path d="m152.688,137.416c-1.618.704-2.415,1.66-2.415,3.332 0,2.278 2.122,2.09 4.151,2.751-1.91,2.431.655,4.45 2.029,6.374 1.46,2.044 3.769,1.099 5.118.482l1.352.291c.406-.144.678-1.936 1.063-1.932 1.046.009 2.08,1.676 3.089,1.641 3.166-.111 3.712-4.305.291-4.055 .996-.994 2.277-1.719 3.669-1.932-.229-.763-.527-1.39-1.056-1.975-1.351-1.494-2.119-.459-2.904-1.115-2.473-2.067-.195-1.053 0-3.863 .408-5.877-4.345.726-6.373,1.932-1.584-2.556-5.365-2.344-8.014-1.931" fill="#5e5e5b"/>
 <path d="m152.688,137.416c2.688-.154 7.846-.236 6.083,4.152 1.792-.736 3.727.262 4.925,1.641-2.174,2.65-3.475-1.938-5.697.58 0-2.705-.157-5.408-3.862-4.152 .811-1.481.234-2.168-1.449-2.221" fill="#73736e"/>
 <path d="m162.055,135.484c1.105-.1 3.569-.729 4.162.356 1.397,2.565-1.646,3.051-.301,5.438-.297-1.824-2.395-2.775-.772-4.347l-3.089-1.447" fill="#73736e"/>
 <path d="m166.978,141.279c3.017-1.351 4.656,3.122 1.45,3.572 1.165,2.956.7,5.934-3.284,4.442 2.376-.48 3.502-2.054 1.353-3.573 1.907-1.11 2.151-3.06.481-4.441" fill="#73736e"/>
 <path d="m155.681,141.857c-1.814,1.983-2.775,4.082-.629,6.229 1.631,1.631 2.504,4.76 5.36,2.076-2.938.115-4.264-3.361-1.063-4.153-2.321-.731-4.729-1.384-3.668-4.152" fill="#51514f"/>
 <path d="m151.334,138.285c-1.472,1.602-2.512,3.111-.771,4.636 .905-1.371 1.028-2.996.771-4.636" fill="#51514f"/>
 <path d="m236.701,139.348c-1.101.348-1.733.903-1.932,2.221l.869.289c-4.924,1.78-.655,4.152 2.432,4.152 1.805,0 3.121,1.614 4.714,1.643 1.521.026 2.925-1.6 4.153-2.222 2.49-1.26 4.761-1.636 2.703-4.346-.387-.509-2.158.112-2.703-.289 .07.052-.294-1.989-.29-1.979-.624-1.77-3.577-1.034-4.441.338 .03-3.556-5.102-2.924-5.505.193" fill="#5e5e5b"/>
 <path d="m239.116,136.547c1.561-.068 2.5,1.686 2.799,1.738 1.292.222 3.05-1.279 3.949-.079 .646.863 1.002,2.582 1.773,2.665 2.229.238 2.608,1.015 2.003,3.498-1.479-3.015-4.33-2.269-7.435-2.512 2.731,2.335-.276,2.669-2.415,2.802 2.362-2.34.937-5.802-.674-8.112" fill="#73736e"/>
 <path d="m259.007,140.216c-1.513,2.509.269,3.767 2.439,4.436 1.048.322 4.352,2.168 4.852,1.89 3.093-1.717 6.032-3.758 4.877-7.967-1.454.184-2.743,1.013-3.572,2.222-1.533-4.714-5.289-1.738-8.596-.581" fill="#5e5e5b"/>
 <path d="m261.71,138.478c1.296.014 2.468-.403 3.381-1.255 1.035,1.525 1.959,3.158 2.512,4.924-1.202-1.31-2.271-1.13-2.802.581-.377-2.332-.146-4.297-3.091-4.25" fill="#73736e"/>
 <path d="m269.148,139.058c.563-.308 1.397-.333 2.027-.483 .097,1.384.193,2.77.29,4.153-.763-1.229-1.519-2.472-2.317-3.67" fill="#73736e"/>
 <path d="m142.837,136.45c-2.094-1.786-4.188.17-6.691-.286-2.839-.518-3.769-3.321-5.621.382-.707,1.414-1.652.535-2.028,1.739-.262.837-2.257,3.477-2.27,3.669-.205,2.994 3.189,4.806 4.539,1.642 1.068,1.824-4.041,7.696 2.414,6.083 2.684-.67 6.904-2.662 6.76-5.503 1.182,1.562.822,3.659 2.801,4.056 .062-3.846.436-8.117.096-11.782" fill="#51514f"/>
 <path d="m131.636,135.87c2.073-.985 2.173.822 2.312,2.571 .141,1.77 1.425,1.408 2.903,2.257-1.726-3.61 1.798-3.34 2.414-.192 .087-4.508-2.269-1.878-3.971-4.287-1.191-1.689-4.957-2.302-4.368.645 .466,2.329.443,6.359 1.676,8.374 .984,1.608 3.2,2.387 2.799-1.062l1.063.579c-.881-1.122-3.421-1.219-3.678-1.827-.195-.463-.416-1.427-.766-1.843-.824-.979-.917-.6-1.642-.193 .841-.47 1.675-1.215 2.414-1.834-2.259.166-3.119-2.576-1.156-3.188" fill="#5e5e5b"/>
 <path d="m128.159,138.96c-2.25-1.948-2.288.145-4.152.098-1.041-.026-2.622-2.694-3.188-.146-.284,1.281-1.931.164-1.931,1.836 0,2.056-.03,2.857 1.448,4.007 .141.11 1.747-.605 2.028-.676 1.039-.261.056.741.676.965 1.402.504 1.691,2.161 3.476,1.546 2.74-.945 1.746-5.667 1.643-7.63" fill="#5e5e5b"/>
 <path d="m117.343,132.2c-1.44-.885-2.414-.767-2.51.967-1.25-.598-1.687-.095-2.801.193l-.483,1.062c-.536.11-1.447-.568-2.172-.482-2.004.235-2.691,4.346-.145,4.346 3.094,0 .84.873 2.511,2.027 1.614,1.115 3.921,2.8 4.152-.386-.107,1.492.907,2.946 1.642,4.056-.001-3.829.514-8.043-.194-11.783" fill="#5e5e5b"/>
 <path d="m153.266,119.84c-2.405.643-.667,4.34-.15,6.066 .802,2.676 5.454,2.984 5.944.018 2.226,1.351 5.974.867 4.443-2.511 4.292.604 2.817-5.266-1.98-3.573-1.782.629-1.514-2.268-2.931-1.765-2.134.757-3.17,1.213-4.168,3.407-.365-.518-.924-1.057-1.158-1.642" fill="#5e5e5b"/>
 <path d="m182.719,119.262c-2.033.934-5.979,3.713-1.646,5.221 1.177.41 3.393,1.506 4.549.972 2.909-1.345 2.07,1.079 4.05.759 1.946-.313 4.293-3.638 1.531-4.729-1.99-.787-3.194-.208-4.911-.677-1.66-.454-.588-2.849-3.573-1.546" fill="#5e5e5b"/>
 <path d="m205.027,121.192c-1.372,3.599.704,3.387 2.801,4.152 .865.316 1.139,1.529 2.703,1.352 .948-.107 1.487-1.645 2.946-1.786 4.736-.46-.096-3.055-1.004-4.569-.662-1.104-6.92.232-7.446.851" fill="#5e5e5b"/>
 <path d="m238.052,121.192c-3.957,5.677 12.367,6.786 15.161,3.572-.258-.257-.515-.515-.772-.771 2.719-.98 4.046-5.194.29-4.731 1.732-5.712-6.762-3.786-6.954.868-3.771-2.432-5.855-3.178-7.725,1.062" fill="#5e5e5b"/>
 <path d="m157.32 118.39c2.079-1.058 3.759 1.078 3.09 3.091-1.202-0.83-2.22-1.924-3.09-3.091" fill="#73736e"/>
 <path d="m163.406,119.551c4.008-.184 1.215,3.267.58,5.214-.281-1.838.469-4.252-1.931-4.151-.318.212 1.991-1.409 1.351-1.063" fill="#73736e"/>
 <path d="m157.323,121.482c1.629,2.328-1.04,2.59-2.415.868 .736-.239 2.007-.801 2.415-.868" fill="#73736e"/>
 <path d="m183.492,118.971c2.437-.5 1.369,1.526 2.801,1.836 .911.196 2.621-.387 3.652-.387 2.827,0 3.973,4.244.789,4.345 2.061-4.915-5.597-1.466-7.435-3.282 .584-.144 1.064-.69 1.641-.869-.401-.557-.908-1.299-1.448-1.643" fill="#73736e"/>
 <path d="m208.309,120.902c1.471-1.607 4.601-1.941 4.947.369 .155,1.034 4.955,2.451.364,3.784 .351-1.889-1.02-2.594-2.799-2.223l.288-1.641c-.853-.087-1.956-.418-2.8-.289" fill="#73736e"/>
 <path d="m248.483,115.978c2.42-1.018 4.749.729 4.248,3.284 4.805-.288-.284,9.18-5.312,6.373 1.614.052 3.011-.846 3.862-2.222l-1.062-.58c1.214-.925 2.281-2.065 2.511-3.571-1.943.644-2.872-1.943-4.247-3.284" fill="#73736e"/>
 <path d="m244.909,119.84c-1.734-1.43-4.035-2.321-5.697-.289 1.788-.009 1.906.797 3.572,1.352-1.263,1.283-.579,1.046-.578,2.511 1.638-.234.918-.592 2.221.869 .434-.52.908-1.56 1.063-2.221-.697.041-1.432-.358-2.125-.29 .502-.539 1.218-1.671 1.544-1.932" fill="#73736e"/>
 <path d="m238.052,121.192c-.396,4.076 5.397,4.121 7.243,5.214-3.01-.251-6.983-1.258-9.947-.482 1.824-1.401 2.385-2.957.581-4.731 .673-.001 1.469-.148 2.123-.001" fill="#51514f"/>
 <path d="m247.71 117.62c-2.222 1.236-1.718 3.501 0 4.925v-4.925" fill="#51514f"/>
 <path d="m204.74 122.26c-0.163 3.82 2.315 1.767 3.572 3.958 0.658-2.296-1.955-2.761-3.572-3.958" fill="#51514f"/>
 <path d="m179.15 120.9c-2.017 5.37 2.366 5.033 6.085 4.732-3.747-0.563-4.709-1.294-6.085-4.732" fill="#51514f"/>
 <path d="m152.976,122.833-1.062-.288c.549,1.778.552,1.245 0,2.511 2.188.973 3.88,3.196 6.277,1.351-.873.393-2.058.363-2.994.581 .026-2.382-.584-4.255-3.283-4.442l1.062.287" fill="#51514f"/>
 <path d="m159.253,122.255c-.104,2.32 1.535,4.285 3.67,2.51-1.799.144-3.18-.805-3.67-2.51" fill="#51514f"/>
 <path d="m142.354,121.578c-.95-.948-2.646-1.33-3.09.193-.424-.112-1.673-.307-2.028.579-1.131,2.825 3.329,4.31 5.892,5.505-.259-2.092-.516-4.184-.774-6.277" fill="#51514f"/>
 <path d="m130.379,121c-1.931-.404-4.15.074-5.504,1.448 .789.628.761.995 2.415.771-.929.429-.798.719-1.449,1.255 1.072.001 2.22.313 3.283.194l-3.477.966c1.739-.179 3.569-.32 4.636,1.255 .032-1.962.065-3.926.096-5.889" fill="#51514f"/>
 <path d="m117.15,122.448c-.67.166-1.196.302-1.739.771 .633.091 1.34.333 1.932.388-1.454.043-2.903.099-4.346.192 .961-.031 1.935.176 2.897.193l-.869.481c.489.356 1.505,1.017 2.027,1.354 .063-1.079.154-2.475.098-3.379" fill="#51514f"/>
 <path d="m259.491,207.234c.379.023 1.381.104 1.448.096h-2.8c.447.039 1.062-.078 1.352-.096" fill="#a6a69b"/>
 <path d="m146.893,73.392c-1.883,28.859-.796,57.217.096,86.138v-43.069c0-13.913 1.735-29.412-.096-43.069" fill="#97978e"/>
</svg>
